<?xml version="1.0" standalone="no"?>
<!DOCTYPE svg PUBLIC "-//W3C//DTD SVG 1.1//EN" "http://www.w3.org/Graphics/SVG/1.1/DTD/svg11.dtd" >
<svg xmlns="http://www.w3.org/2000/svg">
<metadata>Generated by IcoMoon</metadata>
<defs>
<font id="icomoon" horiz-adv-x="512">
<font-face units-per-em="512" ascent="480" descent="-32" />
<missing-glyph horiz-adv-x="512" />
<glyph unicode="&#x20;" d="" horiz-adv-x="256" />
<glyph unicode="&#xe600;" d="M149.333 256l106.667-106.667 106.666 106.667z" />
<glyph unicode="&#xe601;" d="M149.333 170.667l106.667 106.667 106.666-106.667z" />
<glyph unicode="&#xe602;" d="M256 298.667l-128-128 30.186-30.187 97.814 97.814 97.813-97.814 30.187 30.187z" />
<glyph unicode="&#xe603;" d="M353.813 286.187l-97.814-97.814-97.814 97.814-30.186-30.187 128-128 128 128z" />
<glyph unicode="&#xe604;" d="M128 256c-23.573 0-42.666-19.094-42.666-42.667s19.093-42.666 42.666-42.666 42.666 19.094 42.666 42.666-19.094 42.667-42.666 42.667zM384 256c-23.574 0-42.666-19.094-42.666-42.667s19.094-42.666 42.666-42.666 42.666 19.094 42.666 42.666-19.094 42.667-42.666 42.667zM256 256c-23.573 0-42.666-19.094-42.666-42.667s19.094-42.666 42.666-42.666 42.666 19.094 42.666 42.666-19.094 42.667-42.666 42.667z" />
<glyph unicode="&#xe605;" d="M256 298.667c23.574 0 42.666 19.094 42.666 42.667s-19.094 42.666-42.666 42.666-42.666-19.093-42.666-42.666 19.094-42.667 42.666-42.667zM256 256c-23.573 0-42.666-19.094-42.666-42.667s19.094-42.666 42.666-42.666 42.666 19.094 42.666 42.666-19.094 42.667-42.666 42.667zM256 128c-23.573 0-42.666-19.094-42.666-42.666s19.094-42.666 42.666-42.666 42.666 19.094 42.666 42.666-19.094 42.666-42.666 42.666z" />
<glyph unicode="&#xe606;" d="M158.186 72.853l30.186-30.187 67.626 67.626 67.626-67.626 30.187 30.187-97.814 97.813-97.814-97.813zM353.813 353.813l-30.187 30.186-67.626-67.626-67.626 67.627-30.186-30.186 97.813-97.814 97.813 97.814z" />
<glyph unicode="&#xe607;" d="M256 344.96l67.626-67.626 30.187 30.186-97.814 97.814-97.814-97.814 30.186-30.186 67.626 67.626zM256 81.707l-67.626 67.627-30.186-30.187 97.813-97.813 97.813 97.813-30.187 30.187-67.626-67.626z" />
<glyph unicode="&#xe608;" d="M48 416v-400h400v400h-400zM176 32h-112v368h112v-368zM432 32h-240v368h240v-368z" />
<glyph unicode="&#xe609;" d="M48 416v-400h400v400h-400zM304 32h-240v368h240v-368zM432 32h-112v368h112v-368z" />
<glyph unicode="&#xe60a;" d="M48 416v-400h400v400h-400zM240 32h-176v368h176v-368zM432 32h-176v368h176v-368z" />
<glyph unicode="&#xe60b;" d="M48 416v-400h400v400h-400zM176 32h-112v368h112v-368zM304 32h-112v368h112v-368zM432 32h-112v368h112v-368z" />
<glyph unicode="&#xe60c;" d="M48 416v-400h400v400h-400zM432 32h-368v112h368v-112zM432 160h-368v112h368v-112zM432 288h-368v112h368v-112z" />
<glyph unicode="&#xe60d;" d="M48 416v-400h400v400h-400zM240 32h-176v176h176v-176zM240 224h-176v176h176v-176zM432 32h-176v176h176v-176zM432 224h-176v176h176v-176z" />
<glyph unicode="&#xe60e;" d="M48 416v-400h400v400h-400zM176 32h-112v112h112v-112zM176 160h-112v112h112v-112zM176 288h-112v112h112v-112zM304 32h-112v112h112v-112zM304 160h-112v112h112v-112zM304 288h-112v112h112v-112zM432 32h-112v112h112v-112zM432 160h-112v112h112v-112zM432 288h-112v112h112v-112z" />
<glyph unicode="&#xe60f;" d="M48 416v-400h400v400h-400zM432 32h-368v272h368v-272zM432 320h-368v80h368v-80z" />
<glyph unicode="&#xe610;" d="M48 416v-400h400v400h-400zM176 32h-112v272h112v-272zM432 32h-240v272h240v-272zM432 320h-368v80h368v-80z" />
<glyph unicode="&#xe611;" d="M48 416v-400h400v400h-400zM304 32h-240v272h240v-272zM432 32h-112v272h112v-272zM432 320h-368v80h368v-80z" />
<glyph unicode="&#xe612;" d="M48 416v-400h400v400h-400zM176 32h-112v368h112v-368zM432 32h-240v176h240v-176zM432 224h-240v176h240v-176z" />
<glyph unicode="&#xe613;" d="M48 416v-400h400v400h-400zM176 32h-112v272h112v-272zM432 32h-240v128h240v-128zM432 176h-240v128h240v-128zM432 320h-368v80h368v-80z" />
<glyph unicode="&#xe614;" d="M48 416v-400h400v400h-400zM240 32h-176v272h176v-272zM432 32h-176v272h176v-272zM432 320h-368v80h368v-80z" />
<glyph unicode="&#xe615;" d="M48 416v-400h400v400h-400zM127.008 32h-63.008v272h63.008v-272zM352 32h-208v272h208v-272zM432 32h-64v272h64v-272zM432 320h-368v80h368v-80z" />
<glyph unicode="&#xe616;" d="M95.968 400h-15.792v-368h320v15.408l-303.936 0.784-0.272 351.808zM128.176 80h80v174l-80-80v-94zM224.176 80h80v158l-32-32-48 48v-174zM320.176 80h80v242.992l-80-80v-162.992zM214.192 302.928l57.92-57.6 114.368 113.792 29.344-29.504-0.704 70.384-70.64-0.368 27.472-27.552-99.872-100.16-59.024 59.248-89.968-89.664 15.024-14.592 76.080 76.016z" />
<glyph unicode="&#xe617;" d="M111.792 400h-15.792v-368h320v15.408l-303.936 0.8-0.272 351.792zM224 259.008l-80 80v-259.008h80v179.008zM240 270v-190h80v206l-32 32-48-48zM336 224v-144h80v144h-80zM289.904 362.064l83.872-84.144-23.472-22.24 65.648-0.704-0.304 63.376-28.336-27.504-97.376 98.8-59.92-60.592-69.072 69.024-14.032-14.576 81.968-82.688 61.024 61.248z" />
<glyph unicode="&#xe618;" d="M256.24 178.224l-65.152 53.488-141.792-167.408h414.016l-141.808 169.072-65.264-55.152zM478.816 383.696h-445.040l222.528-187.168 222.512 187.168zM331.28 241.808l148.656-177.344v303.232l-148.656-125.888zM32.064 367.696v-303.232l148.656 177.344-148.656 125.888z" />
<glyph unicode="&#xe619;" d="M322.224 177.056l156.592 127.984-222.816 157.328-222.24-157.328 157.184-128.512 131.28 0.528zM197.76 161.024l-148.464-175.392h414.016l-149.808 174.4-115.744 0.992zM331.28 163.152l148.656-177.344v303.232l-148.656-125.888zM32.064 289.040v-303.232l148.656 177.344-148.656 125.888z" />
<glyph unicode="&#xe900;" d="M512 184.778l-256 198.713-256-198.714v81.019l256 198.713 256-198.714zM448 192v-192h-128v128h-128v-128h-128v192l192 144z" />
<glyph unicode="&#xe901;" d="M256 464l-256-256 48-48 48 48v-208h128v96h64v-96h128v208l48-48 48 48-256 256zM256 256c-17.673 0-32 14.327-32 32s14.327 32 32 32c17.673 0 32-14.327 32-32s-14.327-32-32-32z" />
<glyph unicode="&#xe902;" d="M512 176l-96 96v144h-64v-80l-96 96-256-256v-16h64v-160h160v96h64v-96h160v160h64z" />
<glyph unicode="&#xe903;" d="M0-32h256v512h-256v-512zM160 416h64v-64h-64v64zM160 288h64v-64h-64v64zM160 160h64v-64h-64v64zM32 416h64v-64h-64v64zM32 288h64v-64h-64v64zM32 160h64v-64h-64v64zM288 320h224v-32h-224zM288-32h64v128h96v-128h64v288h-224z" />
<glyph unicode="&#xe904;" d="M448 352v64h-448v-352c0-17.673 14.327-32 32-32h432c26.511 0 48 21.489 48 48v272h-64zM416 64h-384v320h384v-320zM64 320h320v-32h-320zM256 256h128v-32h-128zM256 192h128v-32h-128zM256 128h96v-32h-96zM64 256h160v-160h-160z" />
<glyph unicode="&#xe905;" d="M432 480c44.182 0 80-35.817 80-80 0-18.010-5.955-34.629-16-48l-32-32-112 112 32 32c13.371 10.045 29.989 16 48 16zM32 112l-32-144 144 32 296 296-112 112-296-296zM357.789 298.211l-224-224-27.578 27.578 224 224 27.578-27.578z" />
<glyph unicode="&#xe909;" d="M192 480v-48c36.741 0 72.356-7.185 105.858-21.355 32.384-13.697 61.479-33.316 86.474-58.312s44.614-54.090 58.312-86.474c14.171-33.502 21.356-69.119 21.356-105.859h48c0 176.73-143.27 320-320 320zM192 384v-48c47.011 0 91.209-18.307 124.45-51.549 33.243-33.242 51.55-77.439 51.55-124.451h48c0 123.711-100.288 224-224 224zM240 288l-32-32-112-32-96-208 12.687-12.687 116.402 116.402c-0.706 2.643-1.089 5.42-1.089 8.285 0 17.673 14.327 32 32 32s32-14.327 32-32-14.327-32-32-32c-2.866 0-5.641 0.382-8.284 1.089l-116.402-116.402 12.686-12.687 208 96 32 112 32 32-80 80z" />
<glyph unicode="&#xe90c;" d="M512 192v192h-96v32c0 17.6-14.4 32-32 32h-352c-17.6 0-32-14.4-32-32v-96c0-17.6 14.4-32 32-32h352c17.6 0 32 14.4 32 32v32h64v-128h-288v-64h-16c-8.837 0-16-7.163-16-16v-160c0-8.837 7.163-16 16-16h64c8.837 0 16 7.163 16 16v160c0 8.837-7.163 16-16 16h-16v32h288zM384 384h-352v32h352v-32z" />
<glyph unicode="&#xe90d;" d="M479.942 416c0.020-0.017 0.041-0.038 0.058-0.058v-383.885c-0.017-0.020-0.038-0.041-0.058-0.058h-447.885c-0.020 0.017-0.041 0.038-0.057 0.058v383.886c0.017 0.020 0.038 0.041 0.057 0.057h447.885zM480 448h-448c-17.6 0-32-14.4-32-32v-384c0-17.6 14.4-32 32-32h448c17.6 0 32 14.4 32 32v384c0 17.6-14.4 32-32 32v0zM416 336c0-26.51-21.49-48-48-48s-48 21.49-48 48 21.49 48 48 48 48-21.49 48-48zM448 64h-384v64l112 192 128-160h32l112 96z" />
<glyph unicode="&#xe90e;" d="M544 416h-32v32c0 17.6-14.4 32-32 32h-448c-17.6 0-32-14.4-32-32v-384c0-17.6 14.4-32 32-32h32v-32c0-17.6 14.4-32 32-32h448c17.6 0 32 14.4 32 32v384c0 17.6-14.4 32-32 32zM64 384v-320h-31.943c-0.020 0.017-0.041 0.038-0.057 0.058v383.885c0.017 0.020 0.038 0.041 0.057 0.057h447.885c0.020-0.017 0.041-0.038 0.058-0.058v-31.942h-384c-17.6 0-32-14.4-32-32v0zM544 0.058c-0.017-0.020-0.038-0.041-0.058-0.058h-447.885c-0.020 0.017-0.041 0.038-0.057 0.058v383.885c0.017 0.020 0.038 0.041 0.057 0.057h447.885c0.020-0.017 0.041-0.038 0.058-0.058v-383.884zM480 304c0-26.51-21.49-48-48-48s-48 21.49-48 48 21.49 48 48 48 48-21.49 48-48zM512 32h-384v64l112 192 128-160h32l112 96z" horiz-adv-x="576" />
<glyph unicode="&#xe90f;" d="M152 176c0-57.438 46.562-104 104-104s104 46.562 104 104-46.562 104-104 104-104-46.562-104-104zM480 352h-112c-8 32-16 64-48 64h-128c-32 0-40-32-48-64h-112c-17.6 0-32-14.4-32-32v-288c0-17.6 14.4-32 32-32h448c17.6 0 32 14.4 32 32v288c0 17.6-14.4 32-32 32zM256 34c-78.425 0-142 63.574-142 142s63.575 142 142 142c78.426 0 142-63.575 142-142s-63.573-142-142-142zM480 256h-64v32h64v-32z" />
<glyph unicode="&#xe910;" d="M144 192h-32v-224h32c8.8 0 16 7.2 16 16v192c0 8.8-7.2 16-16 16zM368 192c-8.801 0-16-7.2-16-16v-192c0-8.8 7.199-16 16-16h32v224h-32zM512 224c0 141.385-114.615 256-256 256s-256-114.615-256-256c0-30.706 5.415-60.145 15.328-87.424-9.739-16.603-15.328-35.935-15.328-56.576 0-56.423 41.724-103.094 96-110.858v221.709c-15.957-2.283-30.832-7.921-43.877-16.189-2.696 13.359-4.123 27.182-4.123 41.338 0 114.875 93.125 208 208 208s208-93.125 208-208c0-14.157-1.415-27.984-4.11-41.348-13.050 8.273-27.927 13.924-43.89 16.209v-221.72c54.274 7.766 96 54.437 96 110.857 0 20.637-5.589 39.967-15.324 56.569 9.914 27.283 15.324 56.726 15.324 87.433z" />
<glyph unicode="&#xe911;" d="M480 480h32v-368c0-44.183-50.145-80-112-80s-112 35.817-112 80c0 44.184 50.145 80 112 80 31.342 0 59.671-9.2 80-24.020v184.020l-256-56.889v-247.111c0-44.183-50.144-80-112-80s-112 35.817-112 80c0 44.184 50.144 80 112 80 31.342 0 59.671-9.2 80-24.020v312.020l288 64z" />
<glyph unicode="&#xe912;" d="M490.594 399.946c-71.816 10.325-151.166 16.054-234.593 16.054-83.43 0-162.778-5.729-234.597-16.054-13.765-53.863-21.404-113.375-21.404-175.946 0-62.57 7.639-122.083 21.404-175.945 71.819-10.326 151.168-16.055 234.597-16.055 83.427 0 162.776 5.729 234.593 16.055 13.766 53.862 21.406 113.375 21.406 175.945 0 62.571-7.64 122.083-21.406 175.946zM192.001 128v192l160-96-160-96z" />
<glyph unicode="&#xe913;" d="M0 416v-384h512v384h-512zM96 64h-64v64h64v-64zM96 192h-64v64h64v-64zM96 320h-64v64h64v-64zM384 64h-256v320h256v-320zM480 64h-64v64h64v-64zM480 192h-64v64h64v-64zM480 320h-64v64h64v-64zM192 320v-192l128 96z" />
<glyph unicode="&#xe91a;" d="M512 265.372c0 100.463-29.396 181.969-65.741 182.613 0.146 0.003 0.289 0.015 0.436 0.015h-41.471c0 0-97.4-73.168-237.615-101.877-4.28-22.646-7.015-49.637-7.015-80.751s2.733-58.104 7.015-80.75c140.214-28.709 237.615-101.878 237.615-101.878h41.471c-0.146 0-0.289 0.012-0.436 0.016 36.348 0.644 65.741 82.149 65.741 182.612zM432.412 110.374c-4.691 0-9.766 4.871-12.373 7.774-6.315 7.032-12.396 17.98-17.594 31.664-11.628 30.616-18.033 71.655-18.033 115.562 0 43.905 6.405 84.945 18.033 115.561 5.197 13.684 11.281 24.633 17.594 31.664 2.607 2.906 7.682 7.776 12.373 7.776s9.768-4.872 12.372-7.776c6.317-7.032 12.398-17.979 17.594-31.664 11.629-30.615 18.034-71.656 18.034-115.561 0-43.902-6.405-84.944-18.034-115.562-5.195-13.684-11.281-24.632-17.594-31.664-2.604-2.903-7.68-7.774-12.372-7.774zM125.906 265.372c0 25.975 1.905 51.215 5.526 74.547-23.686-3.277-44.471-5.162-70.17-5.162-33.529 0-33.529 0-33.529 0l-27.733-47.343v-44.085l27.73-47.343c0 0 0 0 33.53 0 25.699 0 46.484-1.887 70.17-5.162-3.618 23.332-5.524 48.573-5.524 74.548zM184.075 158.914l-63.999 12.255 40.921-160.772c2.118-8.317 10.372-12.519 18.343-9.327l59.278 23.726c7.972 3.188 11.164 11.982 7.098 19.542l-61.641 114.576zM432.412 205.635c-1.809 0-3.764 1.877-4.769 2.996-2.435 2.71-4.778 6.93-6.781 12.204-4.481 11.8-6.95 27.617-6.95 44.539s2.469 32.739 6.95 44.539c2.003 5.274 4.348 9.494 6.781 12.204 1.005 1.12 2.96 2.997 4.769 2.997 1.808 0 3.765-1.878 4.769-2.997 2.435-2.71 4.778-6.929 6.78-12.204 4.482-11.799 6.951-27.617 6.951-44.539s-2.469-32.739-6.951-44.539c-2.002-5.274-4.348-9.494-6.78-12.204-1.004-1.119-2.96-2.996-4.769-2.996z" />
<glyph unicode="&#xe91b;" d="M320 192c52.935 0 100.935-21.533 135.701-56.299l-45.234-45.234c-23.177 23.178-55.178 37.533-90.467 37.533s-67.289-14.355-90.467-37.533l-45.234 45.234c34.766 34.766 82.766 56.299 135.701 56.299zM93.726 226.274c60.44 60.44 140.799 93.726 226.274 93.726s165.834-33.286 226.275-93.726l-45.255-45.254c-48.353 48.352-112.64 74.98-181.020 74.98-68.381 0-132.667-26.628-181.019-74.981l-45.255 45.255zM494.392 412.781c53.351-22.566 101.258-54.864 142.391-95.998v0l-45.254-45.254c-72.528 72.528-168.96 112.471-271.529 112.471-102.57 0-199-39.943-271.529-112.471l-45.255 45.255c41.134 41.133 89.041 73.431 142.392 95.997 55.252 23.369 113.926 35.219 174.392 35.219s119.139-11.85 174.392-35.219zM288 32c0 17.673 14.327 32 32 32s32-14.327 32-32c0-17.673-14.327-32-32-32s-32 14.327-32 32z" horiz-adv-x="640" />
<glyph unicode="&#xe91e;" d="M240 128c44.183 0 80 35.817 80 80v192c0 44.183-35.817 80-80 80s-80-35.817-80-80v-192c0-44.183 35.818-80 80-80zM352 256v-48c0-61.855-50.145-112-112-112s-112 50.145-112 112v48h-32v-48c0-74.119 56.002-135.15 128-143.11v-64.89h-64v-32h160v32h-64v64.89c71.997 7.96 128 68.991 128 143.11v48h-32z" />
<glyph unicode="&#xe91f;" d="M448 416v-416h-336c-26.513 0-48 21.49-48 48s21.487 48 48 48h304v384h-320c-35.199 0-64-28.8-64-64v-384c0-35.2 28.801-64 64-64h384v448h-32zM112.028 64v0c-0.009-0.001-0.019 0-0.028 0-8.836 0-16-7.163-16-16s7.164-16 16-16c0.009 0 0.019 0.001 0.028 0.001v-0.001h303.945v32h-303.945z" />
<glyph unicode="&#xe920;" d="M112 416h-96c-8.8 0-16-7.2-16-16v-352c0-8.8 7.2-16 16-16h96c8.8 0 16 7.2 16 16v352c0 8.8-7.2 16-16 16zM96 320h-64v32h64v-32zM272 416h-96c-8.8 0-16-7.2-16-16v-352c0-8.8 7.2-16 16-16h96c8.8 0 16 7.2 16 16v352c0 8.8-7.2 16-16 16zM256 320h-64v32h64v-32zM382.544 391.26l-85.732-43.197c-7.858-3.959-11.048-13.629-7.089-21.488l143.989-285.774c3.959-7.859 13.629-11.049 21.488-7.089l85.732 43.196c7.858 3.96 11.048 13.63 7.089 21.487l-143.989 285.775c-3.96 7.859-13.63 11.050-21.488 7.090zM464 48c0-8.837-7.163-16-16-16s-16 7.163-16 16c0 8.837 7.163 16 16 16s16-7.163 16-16z" horiz-adv-x="576" />
<glyph unicode="&#xe921;" d="M512 0v32h-32v192h32v32h-96v-32h32v-192h-96v192h32v32h-96v-32h32v-192h-96v192h32v32h-96v-32h32v-192h-96v192h32v32h-96v-32h32v-192h-32v-32h-32v-32h544v32h-32zM256 480h32l256-160v-32h-544v32l256 160z" horiz-adv-x="544" />
<glyph unicode="&#xe922;" d="M432 480h-384c-26.4 0-48-21.6-48-48v-416c0-26.4 21.6-48 48-48h384c26.4 0 48 21.6 48 48v416c0 26.4-21.6 48-48 48zM416 32h-352v384h352v-384zM128 256h224v-32h-224zM128 192h224v-32h-224zM128 128h224v-32h-224zM128 320h224v-32h-224z" />
<glyph unicode="&#xe923;" d="M432 480h-384c-26.4 0-48-21.6-48-48v-416c0-26.4 21.6-48 48-48h384c26.4 0 48 21.6 48 48v416c0 26.4-21.6 48-48 48zM416 32h-352v384h352v-384zM128 192h224v-32h-224zM128 128h224v-32h-224zM160 336c0 26.51 21.49 48 48 48s48-21.49 48-48c0-26.51-21.49-48-48-48s-48 21.49-48 48zM240 288h-64c-26.4 0-48-14.4-48-32v-32h160v32c0 17.6-21.6 32-48 32z" />
<glyph unicode="&#xe926;" d="M458.903 365.462c-11.106 15.146-26.587 32.85-43.589 49.852s-34.706 32.482-49.852 43.589c-25.787 18.91-38.296 21.097-45.462 21.097h-248c-22.056 0-40-17.944-40-40v-432c0-22.056 17.944-40 40-40h368c22.056 0 40 17.944 40 40v312c0 7.166-2.186 19.675-21.097 45.462zM392.687 392.687c15.35-15.35 27.4-29.199 36.29-40.687h-76.977v76.973c11.492-8.89 25.339-20.939 40.687-36.286zM448 8c0-4.336-3.664-8-8-8h-368c-4.336 0-8 3.664-8 8v432c0 4.336 3.664 8 8 8 0 0 247.978 0.001 248 0v-112c0-8.836 7.163-16 16-16h112v-312zM368 64h-224c-8.836 0-16 7.163-16 16s7.164 16 16 16h224c8.837 0 16-7.163 16-16s-7.163-16-16-16zM368 128h-224c-8.836 0-16 7.163-16 16s7.164 16 16 16h224c8.837 0 16-7.163 16-16s-7.163-16-16-16zM368 192h-224c-8.836 0-16 7.163-16 16s7.164 16 16 16h224c8.837 0 16-7.163 16-16s-7.163-16-16-16z" />
<glyph unicode="&#xe927;" d="M416 32h-320v64l96 160 131.5-160 92.5 64v-128zM416 240c0-26.51-21.49-48-48-48-26.511 0-48 21.49-48 48s21.489 48 48 48c26.51 0 48-21.49 48-48zM458.903 365.462c-11.106 15.146-26.587 32.85-43.589 49.852s-34.706 32.482-49.852 43.589c-25.787 18.91-38.296 21.097-45.462 21.097h-248c-22.056 0-40-17.944-40-40v-432c0-22.056 17.944-40 40-40h368c22.056 0 40 17.944 40 40v312c0 7.166-2.186 19.675-21.097 45.462zM392.687 392.687c15.35-15.35 27.4-29.199 36.29-40.687h-76.977v76.973c11.492-8.89 25.339-20.939 40.687-36.286zM448 8c0-4.336-3.664-8-8-8h-368c-4.336 0-8 3.664-8 8v432c0 4.336 3.664 8 8 8 0 0 247.978 0.001 248 0v-112c0-8.836 7.163-16 16-16h112v-312z" />
<glyph unicode="&#xe928;" d="M458.903 365.462c-11.105 15.146-26.587 32.85-43.589 49.852s-34.706 32.482-49.852 43.589c-25.787 18.91-38.296 21.097-45.462 21.097h-248c-22.056 0-40-17.944-40-40v-432c0-22.056 17.943-40 40-40h368c22.056 0 40 17.944 40 40v312c0 7.166-2.186 19.675-21.097 45.462v0zM392.687 392.687c15.35-15.35 27.4-29.199 36.29-40.687h-76.977v76.973c11.491-8.89 25.339-20.939 40.687-36.286v0zM448 8c0-4.336-3.664-8-8-8h-368c-4.336 0-8 3.664-8 8v432c0 4.336 3.664 8 8 8 0 0 247.978 0.001 248 0v-112c0-8.836 7.162-16 16-16h112v-312zM378.144 284.374c-3.707 3.040-8.582 4.257-13.281 3.316l-160-32c-7.479-1.497-12.863-8.063-12.863-15.69v-118.438c-9.416 4.087-20.339 6.438-32 6.438-35.346 0-64-21.49-64-48s28.654-48 64-48 64 21.49 64 48v114.883l128 25.601v-66.921c-9.416 4.087-20.339 6.438-32 6.438-35.346 0-64-21.49-64-48s28.654-48 64-48 64 21.49 64 48v159.999c0 4.793-2.149 9.334-5.856 12.374z" />
<glyph unicode="&#xe929;" d="M192 288l160-112-160-112v224zM458.903 365.462c-11.106 15.146-26.587 32.85-43.589 49.852s-34.706 32.482-49.852 43.589c-25.787 18.91-38.296 21.097-45.462 21.097h-248c-22.056 0-40-17.944-40-40v-432c0-22.056 17.944-40 40-40h368c22.056 0 40 17.944 40 40v312c0 7.166-2.186 19.675-21.097 45.462zM392.687 392.687c15.35-15.35 27.4-29.199 36.29-40.687h-76.977v76.973c11.492-8.89 25.339-20.939 40.687-36.286zM448 8c0-4.336-3.664-8-8-8h-368c-4.336 0-8 3.664-8 8v432c0 4.336 3.664 8 8 8 0 0 247.978 0.001 248 0v-112c0-8.836 7.163-16 16-16h112v-312z" />
<glyph unicode="&#xe92a;" d="M458.903 365.462c-11.104 15.146-26.587 32.85-43.589 49.852s-34.706 32.482-49.852 43.589c-25.787 18.91-38.297 21.097-45.462 21.097h-248c-22.056 0-40-17.944-40-40v-432c0-22.056 17.941-40 40-40h368c22.056 0 40 17.944 40 40v312c0 7.166-2.186 19.675-21.097 45.462v0 0zM392.687 392.687c15.35-15.35 27.4-29.199 36.29-40.687h-76.977v76.973c11.49-8.89 25.339-20.939 40.687-36.286v0 0zM448 8c0-4.336-3.664-8-8-8h-368c-4.336 0-8 3.664-8 8v432c0 4.336 3.664 8 8 8 0 0 247.978 0.001 248 0v-112c0-8.836 7.16-16 16-16h112v-312zM128 224h160v-160h-160v160zM288 160l96 64v-160l-96 64z" />
<glyph unicode="&#xe92b;" d="M458.903 365.462c-11.104 15.146-26.587 32.85-43.589 49.852s-34.706 32.482-49.852 43.589c-25.787 18.91-38.296 21.097-45.462 21.097h-248c-22.056 0-40-17.944-40-40v-432c0-22.056 17.942-40 40-40h368c22.056 0 40 17.944 40 40v312c0 7.166-2.186 19.675-21.097 45.462v0 0zM392.687 392.687c15.35-15.35 27.4-29.199 36.29-40.687h-76.977v76.973c11.49-8.89 25.339-20.939 40.687-36.286v0 0zM448 8c0-4.336-3.664-8-8-8h-368c-4.336 0-8 3.664-8 8v432c0 4.336 3.664 8 8 8 0 0 247.978 0.001 248 0v-112c0-8.836 7.161-16 16-16h112v-312zM128 448h64v-32h-64v32zM192 416h64v-32h-64v32zM128 384h64v-32h-64v32zM192 352h64v-32h-64v32zM128 320h64v-32h-64v32zM192 288h64v-32h-64v32zM128 256h64v-32h-64v32zM192 224h64v-32h-64v32zM128 56c0-13.2 10.8-24 24-24h80c13.2 0 24 10.8 24 24v80c0 13.2-10.8 24-24 24h-40v32h-64v-136zM224 96v-32h-64v32h64z" />
<glyph unicode="&#xe92c;" d="M320 352v128h-224l-96-96v-288h192v-128h320v384h-192zM96 434.745v-50.745h-50.745l50.745 50.745zM32 128v224h96v96h160v-96l-96-96v-128h-160zM288 306.745v-50.745h-50.745l50.745 50.745zM480 0h-256v224h96v96h160v-320z" />
<glyph unicode="&#xe92d;" d="M352 416h-64v32c0 17.6-14.4 32-32 32h-64c-17.602 0-32-14.4-32-32v-32h-64v-64h256v64zM256 416h-64v31.943c0.017 0.019 0.036 0.039 0.057 0.057h63.884c0.021-0.018 0.041-0.038 0.059-0.057v-31.943zM416 320v80c0 8.8-7.2 16-16 16h-32v-32h16v-64h-96l-96-96v-128h-128v288h16v32h-32c-8.801 0-16-7.2-16-16v-320c0-8.8 7.199-16 16-16h144v-96h320v352h-96zM288 274.745v-50.745h-50.745l50.745 50.745zM480 0h-256v192h96v96h160v-288z" />
<glyph unicode="&#xe92e;" d="M512 320l-256 128-256-128 256-128 256 128zM256 405.515l171.029-85.515-171.029-85.515-171.029 85.515 171.029 85.515zM460.722 249.639l51.278-25.639-256-128-256 128 51.278 25.639 204.722-102.361zM460.722 153.639l51.278-25.639-256-128-256 128 51.278 25.639 204.722-102.361z" />
<glyph unicode="&#xe92f;" d="M224 416l64-64h224v-352h-512v416z" />
<glyph unicode="&#xe930;" d="M416 0l96 256h-416l-96-256zM64 288l-64-288v416h144l64-64h208v-64z" />
<glyph unicode="&#xe931;" d="M288 352l-64 64h-224v-416h512v352h-224zM352 128h-64v-64h-64v64h-64v64h64v64h64v-64h64v-64z" />
<glyph unicode="&#xe932;" d="M288 352l-64 64h-224v-416h512v352h-224zM352 128h-192v64h192v-64z" />
<glyph unicode="&#xe933;" d="M288 352l-64 64h-224v-416h512v352h-224zM256 48l-112 112h80v128h64v-128h80l-112-112z" />
<glyph unicode="&#xe934;" d="M288 352l-64 64h-224v-416h512v352h-224zM256 240l112-112h-80v-128h-64v128h-80l112 112z" />
<glyph unicode="&#xe935;" d="M488 480h-192c-13.2 0-31.637-7.637-40.971-16.971l-238.058-238.058c-9.334-9.334-9.334-24.607 0-33.941l206.059-206.059c9.334-9.334 24.607-9.334 33.941 0l238.059 238.059c9.333 9.333 16.97 27.77 16.97 40.97v192c0 13.2-10.8 24-24 24zM368 288c-26.51 0-48 21.49-48 48s21.49 48 48 48 48-21.49 48-48-21.49-48-48-48z" />
<glyph unicode="&#xe936;" d="M616 480h-192c-13.2 0-31.637-7.637-40.971-16.971l-238.058-238.058c-9.334-9.334-9.334-24.607 0-33.941l206.059-206.059c9.334-9.334 24.607-9.334 33.941 0l238.059 238.059c9.333 9.333 16.97 27.77 16.97 40.97v192c0 13.2-10.8 24-24 24zM496 288c-26.51 0-48 21.49-48 48s21.49 48 48 48 48-21.49 48-48-21.49-48-48-48zM64 208l272 272h-40c-13.2 0-31.637-7.637-40.971-16.971l-238.058-238.058c-9.334-9.334-9.334-24.607 0-33.941l206.059-206.059c9.334-9.334 24.607-9.334 33.941 0l15.029 15.029-208 208z" horiz-adv-x="640" />
<glyph unicode="&#xe93b;" d="M240 448c-132.548 0-240-107.452-240-240s107.452-240 240-240c132.549 0 240 107.451 240 240s-107.451 240-240 240zM240 16c-106.039 0-192 85.961-192 192s85.961 192 192 192c106.039 0 192-85.961 192-192s-85.961-192-192-192zM256 224v64h64v32h-64v32h-32v-32h-64v-128h64v-64h-64v-32h64v-32h32v32h64.001l-0.001 128h-64zM224 224h-32v64h32v-64zM288.001 128h-32.001v64h32.001v-64z" />
<glyph unicode="&#xe940;" d="M192 448h-160c-17.6 0-32-14.4-32-32v-160c0-17.6 14.398-32 32-32h160c17.6 0 32 14.4 32 32v160c0 17.6-14.4 32-32 32zM192 320h-160v32h160v-32zM448 448h-160c-17.602 0-32-14.4-32-32v-416c0-17.6 14.398-32 32-32h160c17.6 0 32 14.4 32 32v416c0 17.6-14.4 32-32 32zM448 160h-160v32h160v-32zM448 256h-160v32h160v-32zM192 192h-160c-17.6 0-32-14.4-32-32v-160c0-17.6 14.398-32 32-32h160c17.6 0 32 14.4 32 32v160c0 17.6-14.4 32-32 32zM192 64h-64v-64h-32v64h-64v32h64v64h32v-64h64v-32z" />
<glyph unicode="&#xe941;" d="M256 480c-141.385 0-256-114.615-256-256s114.615-256 256-256 256 114.615 256 256-114.615 256-256 256zM160 224c0 53.020 42.98 96 96 96s96-42.98 96-96-42.98-96-96-96-96 42.98-96 96zM462.99 138.262v0l-88.71 36.745c6.259 15.092 9.72 31.638 9.72 48.993s-3.461 33.901-9.72 48.993l88.71 36.745c10.954-26.411 17.010-55.365 17.010-85.738s-6.057-59.327-17.010-85.738v0zM341.739 430.99v0 0l-36.745-88.71c-15.092 6.259-31.638 9.72-48.994 9.72s-33.901-3.461-48.993-9.72l-36.745 88.711c26.411 10.952 55.366 17.009 85.738 17.009 30.373 0 59.327-6.057 85.739-17.010zM49.010 309.738l88.711-36.745c-6.259-15.092-9.721-31.638-9.721-48.993s3.461-33.901 9.72-48.993l-88.71-36.745c-10.953 26.411-17.010 55.365-17.010 85.738s6.057 59.327 17.010 85.738zM170.262 17.010l36.745 88.71c15.092-6.259 31.638-9.72 48.993-9.72s33.901 3.461 48.993 9.72l36.745-88.71c-26.411-10.952-55.365-17.010-85.738-17.010s-59.327 6.057-85.738 17.010z" />
<glyph unicode="&#xe942;" d="M352 160c-32-32-32-64-64-64s-64 32-96 64-64 64-64 96 32 32 64 64-64 128-96 128-96-96-96-96c0-64 65.75-193.75 128-256s192-128 256-128c0 0 96 64 96 96s-96 128-128 96z" />
<glyph unicode="&#xe943;" d="M508.689 192.003c4.002-27.741 6.608-65.696-5.832-80.223-20.571-24.022-150.856-24.022-150.856 24.021 0 24.199 21.428 40.067 0.856 64.089-20.236 23.631-56.513 24.015-96.857 24.021-40.343-0.006-76.621-0.39-96.857-24.021-20.571-24.023 0.857-39.89 0.857-64.089 0-48.043-130.285-48.043-150.857-24.022-12.439 14.527-9.834 52.482-5.831 80.223 3.080 18.519 10.862 38.498 35.774 63.997 0 0.001 0.001 0.001 0.001 0.002 37.369 34.871 93.923 63.369 214.913 63.984v0.015c0.672 0 1.332-0.005 2-0.007 0.669 0.002 1.328 0.007 2 0.007v-0.014c120.99-0.615 177.544-29.113 214.913-63.984 0.001-0.001 0.001-0.002 0.001-0.002 24.912-25.498 32.695-45.477 35.775-63.997z" />
<glyph unicode="&#xe944;" d="M96 480v-512h384v512h-384zM288 351.835c35.255 0 63.835-28.58 63.835-63.835s-28.58-63.835-63.835-63.835-63.835 28.58-63.835 63.835 28.58 63.835 63.835 63.835v0zM384 96h-192v32c0 35.348 28.653 64 64 64v0h64c35.348 0 64-28.652 64-64v-32zM32 448h48v-96h-48v96zM32 320h48v-96h-48v96zM32 192h48v-96h-48v96zM32 64h48v-96h-48v96z" />
<glyph unicode="&#xe945;" d="M464 416h-416c-26.4 0-48-21.6-48-48v-320c0-26.4 21.6-48 48-48h416c26.4 0 48 21.6 48 48v320c0 26.4-21.6 48-48 48zM199.37 204.814l-135.37-105.446v250.821l135.37-145.375zM88.19 352h335.62l-167.81-126-167.81 126zM204.644 199.151l51.356-55.151 51.355 55.151 105.277-135.151h-313.264l105.276 135.151zM312.63 204.814l135.37 145.375v-250.821l-135.37 105.446z" />
<glyph unicode="&#xe946;" d="M272 480l-48-48 48-48-112-128h-112l88-88-136-180.308v-19.692h19.692l180.308 136 88-88v112l128 112 48-48 48 48-240 240zM224 208l-32 32 112 112 32-32-112-112z" />
<glyph unicode="&#xe947;" d="M256 480c-88.366 0-160-71.634-160-160 0-160 160-352 160-352s160 192 160 352c0 88.366-71.635 160-160 160zM256 224c-53.020 0-96 42.98-96 96s42.98 96 96 96 96-42.98 96-96-42.98-96-96-96z" />
<glyph unicode="&#xe949;" d="M272.005-32.002c-1.148 0-2.311 0.125-3.47 0.382-7.324 1.625-12.535 8.119-12.535 15.62v240h-240c-7.501 0-13.996 5.211-15.62 12.535-1.625 7.323 2.057 14.792 8.854 17.964l480 224c6.098 2.844 13.322 1.572 18.080-3.186s6.030-11.983 3.186-18.080l-224-480c-2.671-5.72-8.386-9.235-14.495-9.235zM88.121 256h183.879c8.837 0 16-7.164 16-16v-183.879l174.895 374.773-374.774-174.894z" />
<glyph unicode="&#xe94b;" d="M0 384l160 64v-384l-160-64zM192 464l160-96v-368l-160 80zM384 368l128 96v-384l-128-96z" />
<glyph unicode="&#xe94d;" d="M320 448c123.712 0 224-100.288 224-224s-100.288-224-224-224v48c47.012 0 91.209 18.307 124.451 51.549s51.549 77.439 51.549 124.451c0 47.011-18.307 91.209-51.549 124.451s-77.439 51.549-124.451 51.549c-47.011 0-91.209-18.307-124.451-51.549-25.57-25.569-42.291-57.623-48.653-92.451h93.104l-112-128-112 128h82.285c15.53 108.551 108.869 192 221.715 192zM416 256v-64h-128v160h64v-96z" horiz-adv-x="544" />
<glyph unicode="&#xe94e;" d="M329.372 105.372l-105.372 105.373v141.255h64v-114.745l86.628-86.627zM256 480c-141.385 0-256-114.615-256-256s114.615-256 256-256 256 114.615 256 256-114.615 256-256 256zM256 32c-106.039 0-192 85.961-192 192s85.961 192 192 192c106.039 0 192-85.961 192-192s-85.961-192-192-192z" />
<glyph unicode="&#xe94f;" d="M256 480c-141.385 0-256-114.615-256-256s114.615-256 256-256 256 114.615 256 256-114.615 256-256 256zM329.372 105.372l-105.372 105.373v141.255h64v-114.745l86.628-86.627-45.256-45.256z" />
<glyph unicode="&#xe950;" d="M256 416c-123.712 0-224-100.288-224-224s100.288-224 224-224 224 100.288 224 224-100.288 224-224 224zM256 12c-99.412 0-180 80.589-180 180 0 99.412 80.588 180 180 180 99.411 0 180-80.588 180-180 0-99.411-80.589-180-180-180zM467.392 336.413c8.021 14.026 12.608 30.271 12.608 47.587 0 53.020-42.98 96-96 96-30.909 0-58.401-14.611-75.96-37.298 65.942-13.618 122.603-52.599 159.352-106.289v0zM203.96 442.702c-17.558 22.687-45.051 37.298-75.96 37.298-53.020 0-96-42.98-96-96 0-17.316 4.587-33.561 12.608-47.587 36.75 53.69 93.411 92.671 159.352 106.289zM256 192v128h-32v-160h128v32z" />
<glyph unicode="&#xe951;" d="M512.75 80c0 144-128 112-128 224 0 9.28-0.894 17.21-2.524 23.964-8.415 56.509-46.078 101.86-94.886 115.68 0.433 1.974 0.66 4.016 0.66 6.105 0 16.639-14.4 30.251-32 30.251s-32-13.612-32-30.25c0-2.090 0.228-4.132 0.66-6.105-54.735-15.499-95.457-70.649-96.627-136.721-0.020-0.96-0.033-1.932-0.033-2.923 0-112.001-128-80.001-128-224.001 0-38.113 85.295-69.998 199.485-78.040 10.762-20.202 32.028-33.96 56.515-33.96s45.754 13.758 56.515 33.96c114.19 8.042 199.485 39.927 199.485 78.040 0 0.114-0.013 0.228-0.014 0.341l0.764-0.341zM413.123 52.952c-27.115-7.235-59.079-12.438-93.384-15.324-2.852 32.709-30.291 58.372-63.739 58.372s-60.887-25.663-63.739-58.372c-34.304 2.886-66.269 8.089-93.384 15.324-37.315 9.957-55.155 21.095-61.684 27.048 6.529 5.953 24.369 17.091 61.684 27.048 43.386 11.576 99.186 17.952 157.123 17.952s113.737-6.376 157.123-17.952c37.315-9.957 55.155-21.095 61.684-27.048-6.529-5.953-24.369-17.091-61.684-27.048z" />
<glyph unicode="&#xe953;" d="M160 288h64v-64h-64zM256 288h64v-64h-64zM352 288h64v-64h-64zM64 96h64v-64h-64zM160 96h64v-64h-64zM256 96h64v-64h-64zM160 192h64v-64h-64zM256 192h64v-64h-64zM352 192h64v-64h-64zM64 192h64v-64h-64zM416 480v-32h-64v32h-224v-32h-64v32h-64v-512h480v512h-64zM448 0h-416v352h416v-352z" />
<glyph unicode="&#xe954;" d="M128 448h256v-64h-256v64zM480 352h-448c-17.6 0-32-14.4-32-32v-160c0-17.6 14.397-32 32-32h96v-128h256v128h96c17.6 0 32 14.4 32 32v160c0 17.6-14.4 32-32 32zM64 256c-17.673 0-32 14.327-32 32s14.327 32 32 32 32-14.327 32-32-14.326-32-32-32zM352 32h-192v160h192v-160z" />
<glyph unicode="&#xe955;" d="M544 416h-512c-17.6 0-32-14.4-32-32v-320c0-17.6 14.4-32 32-32h512c17.6 0 32 14.4 32 32v320c0 17.6-14.4 32-32 32zM320 352h64v-64h-64v64zM416 256v-64h-64v64h64zM224 352h64v-64h-64v64zM320 256v-64h-64v64h64zM128 352h64v-64h-64v64zM224 256v-64h-64v64h64zM64 352h32v-64h-32v64zM64 256h64v-64h-64v64zM96 96h-32v64h32v-64zM384 96h-256v64h256v-64zM512 96h-96v64h96v-64zM512 192h-64v64h64v-64zM512 288h-96v64h96v-64z" horiz-adv-x="576" />
<glyph unicode="&#xe956;" d="M0 448v-320h512v320h-512zM480 160h-448v256h448v-256zM336 96h-160l-16-64-32-32h256l-32 32z" />
<glyph unicode="&#xe958;" d="M368 480h-224c-26.4 0-48-21.6-48-48v-416c0-26.4 21.6-48 48-48h224c26.4 0 48 21.6 48 48v416c0 26.4-21.6 48-48 48zM192 456h128v-16h-128v16zM256 0c-17.673 0-32 14.327-32 32s14.327 32 32 32 32-14.327 32-32-14.327-32-32-32zM384 96h-256v320h256v-320z" />
<glyph unicode="&#xe95c;" d="M508.494 153.995l-128 160c-3.037 3.796-7.633 6.005-12.494 6.005h-224c-4.86 0-9.458-2.209-12.494-6.005l-128-160c-2.269-2.837-3.506-6.362-3.506-9.995v-144c0-17.673 14.327-32 32-32h448c17.674 0 32 14.327 32 32v144c0 3.633-1.236 7.158-3.506 9.995zM480 128h-112l-64-64h-96l-64 64h-112v10.388l119.69 149.612h208.62l119.69-149.612v-10.388zM368 224h-224c-8.836 0-16 7.164-16 16s7.164 16 16 16h224c8.837 0 16-7.164 16-16s-7.163-16-16-16zM400 160h-288c-8.836 0-16 7.163-16 16s7.164 16 16 16h288c8.837 0 16-7.163 16-16s-7.163-16-16-16z" />
<glyph unicode="&#xe95d;" d="M508.494 153.995l-128 160c-3.037 3.796-7.633 6.005-12.494 6.005h-224c-4.86 0-9.458-2.209-12.494-6.005l-128-160c-2.269-2.837-3.506-6.362-3.506-9.995v-144c0-17.673 14.327-32 32-32h448c17.674 0 32 14.327 32 32v144c0 3.633-1.236 7.158-3.506 9.995zM480 128h-112l-64-64h-96l-64 64h-112v10.388l119.69 149.612h208.62l119.69-149.612v-10.388z" />
<glyph unicode="&#xe95e;" d="M416 448h-320l-96-96v-336c0-8.837 7.163-16 16-16h480c8.836 0 16 7.163 16 16v336l-96 96zM256 64l-160 128h96v96h128v-96h96l-160-128zM77.255 384l32 32h293.489l32-32h-357.489z" />
<glyph unicode="&#xe95f;" d="M416 448h-320l-96-96v-336c0-8.837 7.163-16 16-16h480c8.836 0 16 7.163 16 16v336l-96 96zM320 160v-96h-128v96h-96l160 128 160-128h-96zM77.255 384l32 32h293.488l32-32h-357.488z" />
<glyph unicode="&#xe960;" d="M256 192l128 128h-96v128h-64v-128h-96zM372.363 244.364l-35.87-35.871 130.040-48.493-210.533-78.509-210.533 78.509 130.040 48.493-35.871 35.871-139.636-52.364v-128l256-96 256 96v128z" />
<glyph unicode="&#xe961;" d="M224 192h64v128h96l-128 128-128-128h96zM320 264v-49.356l146.533-54.644-210.533-78.509-210.533 78.509 146.533 54.644v49.356l-192-72v-128l256-96 256 96v128z" />
<glyph unicode="&#xe962;" d="M448 480h-448v-512h512v448l-64 64zM256 416h64v-128h-64v128zM448 32h-384v384h32v-160h288v160h37.489l26.511-26.509v-357.491z" />
<glyph unicode="&#xe964;" d="M256 480c-141.385 0-256-35.817-256-80v-64c0-44.183 114.615-80 256-80s256 35.817 256 80v64c0 44.183-114.615 80-256 80zM256 208c-141.385 0-256 35.817-256 80v-96c0-44.183 114.615-80 256-80s256 35.817 256 80v96c0-44.183-114.615-80-256-80zM256 64c-141.385 0-256 35.817-256 80v-96c0-44.183 114.615-80 256-80s256 35.817 256 80v96c0-44.183-114.615-80-256-80z" />
<glyph unicode="&#xe965;" d="M256 448c-70.692 0-134.688-28.66-181.016-74.989l-74.984 74.989v-192h192l-71.766 71.761c34.748 34.746 82.746 56.239 135.766 56.239 106.034 0 192-85.962 192-192 0-57.348-25.146-108.818-65.009-144l42.333-48c53.151 46.908 86.676 115.538 86.676 192 0 141.385-114.615 256-256 256z" />
<glyph unicode="&#xe966;" d="M0 192c0-76.462 33.524-145.092 86.675-192l42.333 48c-39.863 35.182-65.008 86.652-65.008 144 0 106.038 85.965 192 192 192 53.021 0 101.019-21.493 135.765-56.239l-71.765-71.761h192v192l-74.985-74.989c-46.327 46.329-110.322 74.989-181.015 74.989-141.385 0-256-114.615-256-256z" />
<glyph unicode="&#xe967;" d="M380.931-32c56.863 103.016 66.444 260.153-156.931 254.912v-126.912l-192 192 192 192v-124.186c267.481 6.971 297.285-236.107 156.931-387.814z" />
<glyph unicode="&#xe968;" d="M288 355.814v124.186l192-192-192-192v126.912c-223.375 5.241-213.794-151.896-156.93-254.912-140.356 151.707-110.55 394.785 156.93 387.814z" />
<glyph unicode="&#xe969;" d="M131.070 480c-56.864-103.016-66.445-260.152 156.93-254.912v126.912l192-192-192-192v124.186c-267.48-6.971-297.286 236.107-156.93 387.814z" />
<glyph unicode="&#xe96a;" d="M224 92.186v-124.186l-192 192 192 192v-126.912c223.375-5.24 213.794 151.896 156.931 254.912 140.355-151.707 110.55-394.785-156.931-387.814z" />
<glyph unicode="&#xe96b;" d="M256 448c141.385 0 256-93.125 256-208s-114.615-208-256-208c-13.578 0-26.905 0.867-39.912 2.522-54.989-54.989-120.625-64.85-184.088-66.298v13.458c34.268 16.789 64 47.37 64 82.318 0 4.877-0.379 9.665-1.082 14.348-57.898 38.132-94.918 96.377-94.918 161.652 0 114.875 114.615 208 256 208z" />
<glyph unicode="&#xe96c;" d="M544 29.417c0-22.75 13.014-42.454 32-52.092v-7.969c-5.313-0.727-10.736-1.112-16.25-1.112-34.004 0-64.674 14.264-86.361 37.132-13.111-3.491-27.001-5.376-41.389-5.376-79.529 0-144 57.308-144 128s64.471 128 144 128c79.529 0 144-57.308 144-128 0-27.674-9.882-53.296-26.678-74.233-3.412-7.412-5.322-15.656-5.322-24.35zM256 480c139.229 0 252.496-90.307 255.918-202.76-24.591 10.96-51.793 16.76-79.918 16.76-47.78 0-92.908-16.723-127.069-47.089-35.423-31.486-54.931-73.717-54.931-118.911 0-22.336 4.772-43.944 13.868-63.894-2.614-0.063-5.234-0.106-7.868-0.106-13.578 0-26.905 0.867-39.912 2.522-54.989-54.989-120.625-64.85-184.088-66.298v13.458c34.268 16.789 64 47.37 64 82.318 0 4.877-0.379 9.665-1.082 14.348-57.898 38.132-94.918 96.377-94.918 161.652 0 114.875 114.615 208 256 208z" horiz-adv-x="576" />
<glyph unicode="&#xe96d;" d="M240 480v0c132.548 0 240-86.957 240-194.224s-107.452-194.224-240-194.224c-12.729 0-25.223 0.81-37.417 2.355-51.553-51.347-111.086-60.554-170.583-61.907v12.567c32.126 15.677 58 44.233 58 76.867 0 4.553-0.356 9.024-1.015 13.397-54.279 35.607-88.985 89.994-88.985 150.945 0 107.267 107.452 194.224 240 194.224zM498 44.657c0-27.971 18.157-52.449 46-65.886v-10.771c-51.563 1.159-98.893 9.051-143.571 53.063-10.57-1.325-21.397-2.020-32.429-2.020-47.735 0-91.704 12.879-126.807 34.52 72.337 0.253 140.63 23.427 192.417 65.336 26.104 21.126 46.697 45.913 61.207 73.674 15.383 29.433 23.183 60.791 23.183 93.203 0 5.224-0.225 10.418-0.629 15.584 36.285-29.967 58.629-70.811 58.629-115.838 0-52.244-30.079-98.861-77.12-129.382-0.571-3.748-0.88-7.58-0.88-11.483z" horiz-adv-x="576" />
<glyph unicode="&#xe96e;" d="M256 384c-27.466 0-53.994-4.331-78.847-12.871-23.356-8.027-44.153-19.372-61.814-33.722-33.107-26.899-51.339-61.492-51.339-97.407 0-20.149 5.594-39.689 16.626-58.076 11.376-18.96 28.491-36.293 49.494-50.126 15.178-9.996 25.39-25.974 28.088-43.947 0.9-5.992 1.464-12.044 1.685-18.062 3.735 3.097 7.375 6.423 10.94 9.988 12.077 12.076 28.39 18.745 45.251 18.745 2.684 0 5.381-0.168 8.078-0.512 10.487-1.333 21.199-2.010 31.838-2.010 27.467 0 53.994 4.33 78.847 12.871 23.356 8.027 44.153 19.372 61.814 33.722 33.107 26.898 51.339 61.492 51.339 97.407s-18.232 70.508-51.339 97.407c-17.661 14.349-38.458 25.695-61.814 33.722-24.853 8.54-51.38 12.871-78.847 12.871zM256 448v0c141.385 0 256-93.125 256-208s-114.615-208-256-208c-13.578 0-26.905 0.867-39.912 2.522-54.989-54.989-120.625-64.85-184.088-66.298v13.458c34.268 16.789 64 47.37 64 82.318 0 4.877-0.379 9.665-1.082 14.348-57.898 38.132-94.918 96.377-94.918 161.652 0 114.875 114.615 208 256 208z" />
<glyph unicode="&#xe971;" d="M288 126.694v26.39c35.249 19.864 64 69.386 64 118.916 0 79.529 0 144-96 144s-96-64.471-96-144c0-49.53 28.751-99.052 64-118.916v-26.39c-108.551-8.874-192-62.21-192-126.694h448c0 64.484-83.449 117.82-192 126.694z" />
<glyph unicode="&#xe972;" d="M384 94.694v26.39c35.249 19.864 64 69.386 64 118.916 0 79.529 0 144-96 144s-96-64.471-96-144c0-49.53 28.751-99.052 64-118.916v-26.39c-108.551-8.874-192-62.21-192-126.694h448c0 64.484-83.449 117.82-192 126.694zM163.598 82.336c27.655 18.075 62.040 31.818 99.894 40.207-7.527 8.892-14.354 18.811-20.246 29.51-15.207 27.617-23.246 58.029-23.246 87.947 0 43.021 0 83.655 15.3 116.881 14.853 32.252 41.564 52.248 79.611 59.744-8.457 38.24-30.97 63.375-90.911 63.375-96 0-96-64.471-96-144 0-49.53 28.751-99.052 64-118.916v-26.39c-108.551-8.874-192-62.21-192-126.694h139.503c7.259 6.455 15.298 12.586 24.095 18.336z" horiz-adv-x="576" />
<glyph unicode="&#xe973;" d="M192 112c0 75.617 47.937 140.243 115.016 165.1 8.14 18.269 12.984 38.582 12.984 58.9 0 79.529 0 144-96 144s-96-64.471-96-144c0-49.53 28.751-99.052 64-118.916v-26.39c-108.551-8.874-192-62.21-192-126.694h198.653c-4.332 15.265-6.653 31.366-6.653 48zM368 256c-79.529 0-144-64.471-144-144s64.471-144 144-144c79.528 0 144 64.471 144 144s-64.471 144-144 144zM448 96h-64v-64h-32v64h-64v32h64v64h32v-64h64v-32z" />
<glyph unicode="&#xe974;" d="M192 112c0 75.617 47.937 140.243 115.016 165.1 8.14 18.269 12.984 38.582 12.984 58.9 0 79.529 0 144-96 144s-96-64.471-96-144c0-49.53 28.751-99.052 64-118.916v-26.39c-108.551-8.874-192-62.21-192-126.694h198.653c-4.332 15.265-6.653 31.366-6.653 48zM368 256c-79.529 0-144-64.471-144-144s64.471-144 144-144c79.528 0 144 64.471 144 144s-64.471 144-144 144zM448 96h-160v32h160v-32z" />
<glyph unicode="&#xe975;" d="M480 176l-144-144-48 48-32-32 80-80 176 176zM224 96h160v57.564c-33.61 19.6-78.154 33.055-128 37.13v26.39c35.249 19.864 64 69.386 64 118.916 0 79.529 0 144-96 144s-96-64.471-96-144c0-49.53 28.751-99.052 64-118.916v-26.39c-108.551-8.874-192-62.21-192-126.694h224v32z" />
<glyph unicode="&#xe976;" d="M160 384c0 53.019 42.981 96 96 96s96-42.981 96-96c0-53.019-42.981-96-96-96s-96 42.981-96 96zM384.039 256h-17.712l-99.552-202.122 37.225 186.122-48 48-48-48 37.225-186.122-99.551 202.122h-17.712c-63.962 0-63.962-42.993-63.962-96v-160h384v160c0 53.007 0 96-63.961 96z" />
<glyph unicode="&#xe97a;" d="M192 416c0 35.346 28.654 64 64 64s64-28.654 64-64c0-35.346-28.654-64-64-64s-64 28.654-64 64zM327.765 359.765c0 35.346 28.654 64 64 64s64-28.654 64-64c0-35.346-28.654-64-64-64s-64 28.654-64 64zM416 224c0 17.673 14.327 32 32 32s32-14.327 32-32c0-17.673-14.327-32-32-32s-32 14.327-32 32zM359.765 88.235c0 17.673 14.327 32 32 32s32-14.327 32-32c0-17.673-14.327-32-32-32s-32 14.327-32 32zM224.001 32c0 0 0 0 0 0 0 17.673 14.327 32 32 32s32-14.327 32-32c0 0 0 0 0 0 0-17.673-14.327-32-32-32s-32 14.327-32 32zM88.236 88.235c0 0 0 0 0 0 0 17.673 14.327 32 32 32s32-14.327 32-32c0 0 0 0 0 0 0-17.673-14.327-32-32-32s-32 14.327-32 32zM72.236 359.765c0 0 0 0 0 0 0 26.51 21.49 48 48 48s48-21.49 48-48c0 0 0 0 0 0 0-26.51-21.49-48-48-48s-48 21.49-48 48zM28 224c0 19.882 16.117 36 36 36s36-16.118 36-36c0-19.882-16.118-36-36-36s-36 16.118-36 36z" />
<glyph unicode="&#xe985;" d="M32 480h192v-32h-192zM288 480h192v-32h-192zM476 320h-28v128h-128v-128h-128v128h-128v-128h-28c-19.8 0-36-16.2-36-36v-280c0-19.8 16.2-36 36-36h152c19.8 0 36 16.2 36 36v188h64v-188c0-19.8 16.2-36 36-36h152c19.8 0 36 16.2 36 36v280c0 19.8-16.2 36-36 36zM174 0h-124c-9.9 0-18 7.2-18 16s8.1 16 18 16h124c9.9 0 18-7.2 18-16s-8.1-16-18-16zM272 224h-32c-8.8 0-16 7.2-16 16s7.2 16 16 16h32c8.8 0 16-7.2 16-16s-7.2-16-16-16zM462 0h-124c-9.9 0-18 7.2-18 16s8.1 16 18 16h124c9.9 0 18-7.2 18-16s-8.1-16-18-16z" />
<glyph unicode="&#xe986;" d="M496.131 44.302l-121.276 103.147c-12.537 11.283-25.945 16.463-36.776 15.963 28.628 33.534 45.921 77.039 45.921 124.588 0 106.039-85.961 192-192 192s-192-85.961-192-192 85.961-192 192-192c47.549 0 91.054 17.293 124.588 45.922-0.5-10.831 4.68-24.239 15.963-36.776l103.147-121.276c17.661-19.623 46.511-21.277 64.11-3.678s15.946 46.449-3.677 64.11zM192 160c-70.692 0-128 57.308-128 128s57.308 128 128 128 128-57.308 128-128-57.307-128-128-128z" />
<glyph unicode="&#xe989;" d="M512 480h-208l80-80-96-96 48-48 96 96 80-80zM512-32v208l-80-80-96 96-48-48 96-96-80-80zM0-32h208l-80 80 96 96-48 48-96-96-80 80zM0 480v-208l80 80 96-96 48 48-96 96 80 80z" />
<glyph unicode="&#xe98a;" d="M288 256h208l-80 80 96 96-48 48-96-96-80 80zM288 192v-208l80 80 96-96 48 48-96 96 80 80zM224 192.002h-208l80-80-96-96 48-48 96 96 80-80zM224 256v208l-80-80-96 96-48-48 96-96-80-80z" />
<glyph unicode="&#xe98d;" d="M352 480c-88.365 0-160-71.634-160-160 0-10.013 0.929-19.808 2.688-29.312l-194.688-194.688v-96c0-17.673 14.327-32 32-32h32v32h64v64h64v64h64l41.521 41.521c17.005-6.158 35.348-9.521 54.479-9.521 88.365 0 160 71.634 160 160s-71.635 160-160 160zM399.937 319.937c-26.51 0-48 21.49-48 48s21.49 48 48 48 48-21.49 48-48-21.49-48-48-48z" />
<glyph unicode="&#xe98f;" d="M296 256h-8v96c0 52.935-43.065 96-96 96h-64c-52.935 0-96-43.065-96-96v-96h-8c-13.2 0-24-10.8-24-24v-240c0-13.2 10.8-24 24-24h272c13.2 0 24 10.8 24 24v240c0 13.2-10.8 24-24 24zM96 352c0 17.645 14.355 32 32 32h64c17.645 0 32-14.355 32-32v-96h-128v96z" />
<glyph unicode="&#xe990;" d="M384 448c52.935 0 96-43.065 96-96v-96h-64v96c0 17.645-14.355 32-32 32h-64c-17.645 0-32-14.355-32-32v-96h8c13.2 0 24-10.8 24-24v-240c0-13.2-10.8-24-24-24h-272c-13.2 0-24 10.8-24 24v240c0 13.2 10.8 24 24 24h200v96c0 52.935 43.065 96 96 96h64z" />
<glyph unicode="&#xe991;" d="M501.467 71.062l-230.276 197.38c10.724 20.149 16.809 43.141 16.809 67.558 0 79.529-64.471 144-144 144-14.547 0-28.586-2.166-41.823-6.177l83.195-83.195c12.445-12.445 12.445-32.81 0-45.255l-50.745-50.745c-12.445-12.445-32.81-12.445-45.255 0l-83.195 83.195c-4.011-13.237-6.177-27.276-6.177-41.823 0-79.529 64.471-144 144-144 24.417 0 47.409 6.085 67.558 16.81l197.38-230.276c11.454-13.362 31.008-14.113 43.452-1.669l50.746 50.746c12.444 12.444 11.693 31.997-1.669 43.451z" />
<glyph unicode="&#xe992;" d="M224 416v8c0 13.2-10.8 24-24 24h-80c-13.2 0-24-10.8-24-24v-8h-96v-64h96v-8c0-13.2 10.8-24 24-24h80c13.2 0 24 10.8 24 24v8h288v64h-288zM128 352v64h64v-64h-64zM416 264c0 13.2-10.8 24-24 24h-80c-13.2 0-24-10.8-24-24v-8h-288v-64h288v-8c0-13.2 10.8-24 24-24h80c13.2 0 24 10.8 24 24v8h96v64h-96v8zM320 192v64h64v-64h-64zM224 104c0 13.2-10.8 24-24 24h-80c-13.2 0-24-10.8-24-24v-8h-96v-64h96v-8c0-13.2 10.8-24 24-24h80c13.2 0 24 10.8 24 24v8h288v64h-288v8zM128 32v64h64v-64h-64z" />
<glyph unicode="&#xe993;" d="M448 256h8c13.2 0 24 10.8 24 24v80c0 13.2-10.8 24-24 24h-8v96h-64v-96h-8c-13.2 0-24-10.8-24-24v-80c0-13.2 10.8-24 24-24h8v-288h64v288zM384 352h64v-64h-64v64zM296 64c13.2 0 24 10.8 24 24v80c0 13.2-10.8 24-24 24h-8v288h-64v-288h-8c-13.2 0-24-10.8-24-24v-80c0-13.2 10.8-24 24-24h8v-96h64v96h8zM224 160h64v-64h-64v64zM136 256c13.2 0 24 10.8 24 24v80c0 13.2-10.8 24-24 24h-8v96h-64v-96h-8c-13.2 0-24-10.8-24-24v-80c0-13.2 10.8-24 24-24h8v-288h64v288h8zM64 352h64v-64h-64v64z" />
<glyph unicode="&#xe994;" d="M466.895 174.875c-26.863 46.527-10.708 106.152 36.076 133.244l-50.313 87.146c-14.375-8.427-31.088-13.259-48.923-13.259-53.768 0-97.354 43.873-97.354 97.995h-100.629c0.133-16.705-4.037-33.641-12.979-49.126-26.862-46.528-86.578-62.351-133.431-35.379l-50.312-87.146c14.485-8.236 27.025-20.294 35.943-35.739 26.819-46.454 10.756-105.96-35.854-133.112l50.313-87.146c14.325 8.348 30.958 13.127 48.7 13.127 53.598 0 97.072-43.596 97.35-97.479h100.627c-0.043 16.537 4.136 33.285 12.983 48.609 26.818 46.453 86.388 62.297 133.207 35.506l50.313 87.145c-14.39 8.233-26.846 20.249-35.717 35.614zM256 120.334c-57.254 0-103.668 46.412-103.668 103.667 0 57.254 46.413 103.667 103.668 103.667s103.666-46.413 103.666-103.667c-0.001-57.255-46.412-103.667-103.666-103.667z" />
<glyph unicode="&#xe995;" d="M181.861 118.974l20.649 28.908-22.627 22.628-28.909-20.648c-5.361 2.997-11.102 5.387-17.133 7.096l-5.841 35.042h-32l-5.84-35.043c-6.031-1.709-11.772-4.099-17.133-7.096l-28.909 20.649-22.628-22.628 20.649-28.908c-2.997-5.36-5.387-11.103-7.096-17.133l-35.043-5.841v-32l35.043-5.841c1.709-6.030 4.099-11.772 7.096-17.133l-20.649-28.908 22.627-22.628 28.909 20.648c5.361-2.997 11.102-5.387 17.133-7.096l5.841-35.042h32l5.84 35.043c6.031 1.709 11.772 4.099 17.133 7.096l28.909-20.648 22.627 22.628-20.649 28.908c2.997 5.36 5.387 11.103 7.096 17.133l35.044 5.84v32l-35.043 5.841c-1.709 6.030-4.099 11.772-7.096 17.133zM112 48c-17.674 0-32 14.327-32 32s14.326 32 32 32 32-14.327 32-32-14.326-32-32-32zM512 288v32l-33.691 6.125c-0.621 4.023-1.416 7.989-2.362 11.895l28.779 18.55-12.246 29.564-33.472-7.234c-2.107 3.455-4.363 6.81-6.746 10.065l19.503 28.171-22.628 22.627-28.171-19.503c-3.256 2.383-6.61 4.638-10.065 6.747l7.234 33.472-29.564 12.247-18.55-28.779c-3.906 0.946-7.872 1.741-11.895 2.362l-6.126 33.691h-32l-6.126-33.691c-4.023-0.621-7.988-1.416-11.895-2.362l-18.549 28.779-29.564-12.246 7.234-33.472c-3.455-2.108-6.81-4.364-10.065-6.747l-28.171 19.503-22.627-22.627 19.503-28.171c-2.383-3.255-4.639-6.61-6.747-10.065l-33.472 7.234-12.246-29.564 28.779-18.55c-0.946-3.906-1.741-7.871-2.362-11.895l-33.692-6.126v-32l33.691-6.125c0.621-4.023 1.416-7.989 2.362-11.895l-28.779-18.55 12.246-29.564 33.472 7.234c2.108-3.455 4.364-6.809 6.747-10.065l-19.503-28.171 22.627-22.628 28.171 19.503c3.255-2.383 6.61-4.638 10.065-6.746l-7.234-33.472 29.564-12.246 18.551 28.779c3.905-0.946 7.871-1.741 11.894-2.362l6.126-33.692h32l6.126 33.691c4.022 0.621 7.988 1.416 11.895 2.362l18.55-28.779 29.564 12.246-7.234 33.472c3.455 2.108 6.81 4.363 10.065 6.746l28.171-19.503 22.628 22.628-19.503 28.171c2.383 3.256 4.638 6.61 6.746 10.065l33.472-7.234 12.246 29.565-28.779 18.55c0.946 3.906 1.741 7.871 2.362 11.895l33.691 6.125zM336 234.4c-38.439 0-69.6 31.161-69.6 69.6s31.16 69.6 69.6 69.6 69.6-31.161 69.6-69.6c0-38.439-31.16-69.6-69.6-69.6z" />
<glyph unicode="&#xe998;" d="M448 352h-96v64c0 17.6-14.4 32-32 32h-128c-17.6 0-32-14.4-32-32v-64h-96c-35.2 0-64-28.8-64-64v-256c0-35.2 28.8-64 64-64h384c35.2 0 64 28.8 64 64v256c0 35.2-28.8 64-64 64zM192 416h128v-64h-128v64zM384 128h-96v-96h-64v96h-96v64h96v96h64v-96h96v-64z" />
<glyph unicode="&#xe999;" d="M512 192v32h-96.645c-2.931 36.343-15.893 69.513-35.835 96.125h80.972l35.030 140.12-31.045 7.761-28.97-115.88h-87.34c-0.446 0.347-0.898 0.687-1.349 1.028 3.355 9.751 5.181 20.211 5.181 31.097 0.001 52.88-42.979 95.749-95.999 95.749s-96-42.869-96-95.75c0-10.886 1.825-21.346 5.181-31.097-0.45-0.342-0.902-0.681-1.349-1.028h-87.34l-28.97 115.88-31.045-7.761 35.030-140.12h80.972c-19.942-26.611-32.903-59.781-35.834-96.124h-96.645v-32h96.685c1.901-22.832 7.754-44.406 16.819-63.875h-61.996l-35.030-140.119 31.045-7.762 28.97 115.881h56.177c29.346-39.016 73.698-63.875 123.33-63.875s93.983 24.859 123.331 63.875h56.177l28.97-115.881 31.045 7.762-35.030 140.119h-61.996c9.065 19.469 14.918 41.043 16.818 63.875h96.685z" />
<glyph unicode="&#xe99a;" d="M224 192v224c-123.712 0-224-100.288-224-224s100.288-224 224-224 224 100.288 224 224c0 36.017-8.514 70.042-23.618 100.191l-200.382-100.191zM456.382 356.191c-36.776 73.408-112.687 123.809-200.382 123.809v-224l200.382 100.191z" />
<glyph unicode="&#xe99b;" d="M64 32h448v-64h-512v512h64zM144 64c-26.51 0-48 21.49-48 48s21.49 48 48 48c1.414 0 2.811-0.074 4.194-0.193l51.596 85.993c-4.92 7.535-7.79 16.531-7.79 26.201 0 26.51 21.49 48 48 48s48-21.49 48-48c0-9.671-2.87-18.666-7.79-26.201l51.596-85.993c1.383 0.119 2.78 0.193 4.194 0.193 1.068 0 2.124-0.047 3.175-0.115l85.178 149.061c-5.268 7.704-8.353 17.018-8.353 27.055 0 26.51 21.49 48 48 48s48-21.49 48-48c0-26.51-21.49-48-48-48-1.070 0-2.124 0.047-3.175 0.116l-85.178-149.062c5.268-7.703 8.353-17.018 8.353-27.055 0-26.51-21.49-48-48-48s-48 21.49-48 48c0 9.67 2.87 18.666 7.789 26.201l-51.595 85.992c-1.383-0.119-2.78-0.193-4.194-0.193s-2.811 0.073-4.194 0.193l-51.596-85.993c4.92-7.534 7.79-16.53 7.79-26.2 0-26.51-21.49-48-48-48z" />
<glyph unicode="&#xe99c;" d="M0 64h512v-64h-512zM64 192h64v-96h-64zM160 320h64v-224h-64zM256 224h64v-128h-64zM352 416h64v-320h-64z" />
<glyph unicode="&#xe99d;" d="M144 288h-96c-8.8 0-16-7.2-16-16v-288c0-8.8 7.2-16 16-16h96c8.8 0 16 7.2 16 16v288c0 8.8-7.2 16-16 16zM144 0h-96v128h96v-128zM304 352h-96c-8.8 0-16-7.2-16-16v-352c0-8.8 7.2-16 16-16h96c8.8 0 16 7.2 16 16v352c0 8.8-7.2 16-16 16zM304 0h-96v160h96v-160zM464 416h-96c-8.8 0-16-7.2-16-16v-416c0-8.8 7.2-16 16-16h96c8.8 0 16 7.2 16 16v416c0 8.8-7.2 16-16 16zM464 0h-96v192h96v-192z" />
<glyph unicode="&#xe99e;" d="M416 384v64h-320v-64h-96v-64c0-53.019 42.979-96 96-96 10.038 0 19.715 1.543 28.81 4.401 23.087-33.004 58.304-56.898 99.19-65.198v-99.203h-32c-35.347 0-64-28.653-64-64h256c0 35.347-28.653 64-64 64h-32v99.203c40.886 8.3 76.103 32.193 99.19 65.198 9.095-2.858 18.772-4.401 28.81-4.401 53.021 0 96 42.981 96 96v64h-96zM96 262c-31.981 0-58 26.019-58 58v32h58v-32c0-20.093 3.715-39.316 10.477-57.034-3.401-0.623-6.899-0.966-10.477-0.966zM474 320c0-31.981-26.019-58-58-58-3.578 0-7.076 0.343-10.477 0.966 6.762 17.718 10.477 36.941 10.477 57.034v32h58v-32z" />
<glyph unicode="&#xe99f;" d="M385.758 320c9.063 6.44 17.756 13.608 25.722 21.574 16.701 16.701 27.873 37.25 31.456 57.861 3.929 22.593-1.836 43.57-15.815 57.55-11.15 11.149-26.255 17.043-43.682 17.043-24.816 0-50.961-11.912-71.73-32.681-33.238-33.238-52.613-79.119-63.038-111.861-7.72 32.901-23.103 77.322-53.009 107.229-16.047 16.046-36.557 24.285-55.923 24.285-15.827 0-30.89-5.502-42.13-16.743-24.993-24.994-21.616-68.893 7.543-98.052 10.396-10.396 22.549-19.031 35.36-26.206h-108.512v-128h32v-224h384v224.001h32v128h-94.242zM337.163 415.891c13.862 13.862 31.161 22.137 46.275 22.137 5.35 0 12.854-1.127 18.225-6.499 13.015-13.014 5.706-43.154-15.64-64.499-21.973-21.973-51.53-37.084-77.216-47.030h-25.336c9.284 28.774 26.029 68.228 53.692 95.891zM116.967 399.555c-0.351 4.56-0.025 13.124 6.098 19.247 5.122 5.122 11.894 6.198 16.674 6.198v0c10.629 0 21.734-5.008 30.466-13.74 16.936-16.936 30.883-43.886 40.334-77.938 0.255-0.92 0.504-1.835 0.748-2.743-0.908 0.243-1.823 0.492-2.743 0.748-34.052 9.452-61.001 23.399-77.937 40.335-7.914 7.913-12.885 18.080-13.64 27.893zM224 0h-128v208h128v-208zM224 224h-160v64h160v-64zM416 0h-128v208h128v-208zM448 224h-160v64h160v-64z" />
<glyph unicode="&#xe9a0;" d="M388.892 471.572c-2.788 5.19-8.203 8.428-14.095 8.428h-237.594c-5.892 0-11.307-3.238-14.095-8.428-17.734-33.010-27.108-71.592-27.108-111.572 0-52.706 16.186-102.414 45.577-139.969 22.714-29.023 51.24-48.27 82.423-56.086v-163.945h-48c-8.836 0-16-7.163-16-16s7.164-16 16-16h160c8.837 0 16 7.163 16 16s-7.163 16-16 16h-48v163.945c31.184 7.816 59.709 27.062 82.423 56.086 29.391 37.555 45.577 87.263 45.577 139.969 0 39.98-9.374 78.561-27.108 111.572zM147.050 448h217.9c12.487-26.451 19.050-56.669 19.050-88 0-2.682-0.054-5.348-0.148-8h-255.703c-0.095 2.652-0.148 5.318-0.148 8-0.001 31.332 6.563 61.549 19.049 88z" />
<glyph unicode="&#xe9a2;" d="M480 320h-96v48c0 44.183-85.961 80-192 80s-192-35.817-192-80v-320c0-44.183 85.961-80 192-80s192 35.817 192 80v48h96c17.673 0 32 14.327 32 32v160c0 17.673-14.327 32-32 32zM88.028 350.801c-18.497 6.095-29.704 12.623-35.705 17.199 6.002 4.576 17.208 11.104 35.705 17.199 28.971 9.545 65.895 14.801 103.972 14.801s75.002-5.256 103.972-14.801c18.497-6.094 29.704-12.623 35.705-17.199-6.001-4.576-17.208-11.104-35.705-17.199-28.97-9.545-65.895-14.801-103.972-14.801s-75.001 5.256-103.972 14.801zM448 160h-64v96h64v-96z" />
<glyph unicode="&#xe9a3;" d="M112 480c-53.020 0-96-50.144-96-112 0-52.962 31.511-97.333 73.853-108.999l-15.894-259.062c-1.077-17.566 12.441-31.939 30.041-31.939h16c17.6 0 31.118 14.373 30.041 31.939l-15.894 259.062c42.342 11.666 73.853 56.037 73.853 108.999 0 61.856-42.98 112-96 112zM434.667 480l-26.667-160h-20l-13.333 160h-13.334l-13.333-160h-20l-26.667 160h-13.333v-208c0-8.836 7.163-16 16-16h41.669l-15.71-256.061c-1.077-17.566 12.441-31.939 30.041-31.939h16c17.6 0 31.118 14.373 30.041 31.939l-15.71 256.061h41.669c8.837 0 16 7.164 16 16v208h-13.333z" />
<glyph unicode="&#xe9a4;" d="M505.664 412.752c-55.376 41.964-140.592 67.017-227.955 67.017-108.060 0-196.113-37.728-241.58-103.51-21.354-30.895-33.165-67.479-35.104-108.737-1.727-36.737 4.442-77.363 18.342-121.073 47.437 142.192 179.91 253.551 332.633 253.551 0 0-142.913-37.616-232.762-154.096-0.056-0.069-1.247-1.545-3.307-4.349-18.040-24.139-33.769-51.581-45.539-82.664-19.935-47.415-38.392-112.474-38.392-190.891h64c0 0-9.715 61.111 7.18 131.395 27.945-3.778 52.929-5.653 75.426-5.653 58.839 0 100.685 12.73 131.694 40.062 27.784 24.489 43.099 57.393 59.312 92.228 24.762 53.204 52.827 113.505 134.327 160.076 4.665 2.666 7.681 7.496 8.028 12.858s-2.020 10.54-6.303 13.786z" />
<glyph unicode="&#xe9a5;" d="M352 448l-160-160h-96l-96-128c0 0 101.708 28.326 161.033 15.042l-161.033-207.042 210.951 164.072c29.419-67.327-18.951-164.072-18.951-164.072l128 96v96l160 160 32 160-160-32z" />
<glyph unicode="&#xe9a6;" d="M256 448c141.385 0 256-114.615 256-256 0-96.396-53.288-180.333-132.004-224h-247.992c-78.716 43.667-132.004 127.604-132.004 224 0 141.385 114.615 256 256 256zM400.957 47.043c38.719 38.72 60.043 90.199 60.043 144.957h-45v32h42.519c-3.507 22.499-10.695 44.073-21.282 64h-53.237v32h32.142c-4.719 5.881-9.776 11.548-15.185 16.957-23.111 23.11-50.77 40.019-80.957 49.899v-34.856h-32v42.52c-10.491 1.634-21.18 2.48-32 2.48s-21.509-0.845-32-2.48v-42.52h-32v34.856c-30.186-9.88-57.846-26.788-80.957-49.899-5.409-5.409-10.466-11.076-15.185-16.957h32.142v-32h-53.238c-10.587-19.927-17.776-41.501-21.282-64h42.52v-32h-45c0-54.758 21.324-106.237 60.043-144.957 5.355-5.355 10.962-10.364 16.78-15.043h96.177l18.286 256h27.428l18.286-256h96.177c5.818 4.679 11.426 9.689 16.78 15.043z" />
<glyph unicode="&#xe9a8;" d="M505.087 22.125l-274.317 249.729 12.767 12.799c10.447 10.477 16.094 24.015 16.959 37.805 0.501 0.225 1.001 0.456 1.479 0.721l51.495 32.201c6.967 8.196 6.458 21.134-1.142 28.751l-89.56 89.804c-7.595 7.617-20.499 8.131-28.672 1.142l-32.118-51.634c-0.263-0.483-0.495-0.983-0.72-1.487-13.751-0.868-27.25-6.528-37.699-17.003l-48.714-48.851c-10.449-10.478-16.092-24.013-16.959-37.802-0.502-0.225-1.002-0.458-1.482-0.723l-51.493-32.203c-6.971-8.195-6.458-21.132 1.138-28.748l89.56-89.802c7.597-7.619 20.498-8.131 28.675-1.143l32.114 51.635c0.264 0.479 0.494 0.98 0.721 1.483 13.751 0.869 27.252 6.525 37.699 17.002l14.146 14.186 249.061-275.057c7.218-7.972 18.35-9.259 24.737-2.856l25.178 25.244c6.382 6.404 5.098 17.566-2.853 24.807z" />
<glyph unicode="&#xe9a9;" d="M160.504-32c-34.123 71.004-15.951 111.689 10.275 150.022 28.72 41.978 36.122 83.533 36.122 83.533s22.577-29.35 13.546-75.254c39.886 44.4 47.412 115.14 41.391 142.232 90.157-63.006 128.688-199.428 76.761-300.533 276.186 156.266 68.699 390.086 32.577 416.425 12.041-26.338 14.324-70.925-10-92.563-41.176 156.138-142.986 188.138-142.986 188.138 12.041-80.522-43.648-168.572-97.348-234.365-1.887 32.108-3.891 54.264-20.775 84.99-3.79-58.328-48.366-105.874-60.437-164.314-16.351-79.143 12.248-137.090 120.874-198.311z" />
<glyph unicode="&#xe9ad;" d="M96-32h320l32 352h-384zM320 416v64h-128v-64h-160v-96l32 32h384l32-32v96h-160zM288 416h-64v32h64v-32z" />
<glyph unicode="&#xe9ae;" d="M480 352h-128v32c0 17.6-14.4 32-32 32h-128c-17.602 0-32-14.4-32-32v-32h-128c-17.6 0-32-14.4-32-32v-288c0-17.601 14.398-32 32-32h448c17.6 0 32 14.399 32 32v288c0 17.6-14.4 32-32 32zM192 383.942c0.017 0.020 0.037 0.041 0.057 0.058h127.886c0.021-0.017 0.041-0.038 0.059-0.058v-31.942h-128.002v31.942zM480 224h-64v-48c0-8.801-7.2-16-16-16h-32c-8.802 0-16 7.199-16 16v48h-192v-48c0-8.801-7.2-16-16-16h-32c-8.801 0-16 7.199-16 16v48h-64v32h448v-32z" />
<glyph unicode="&#xe9af;" d="M384 160.016l-91.41 91.411 219.41 164.575-64.005 63.998-274.26-109.721-86.35 86.353c-24.89 24.889-59.651 30.853-77.251 13.254-17.599-17.599-11.634-52.363 13.255-77.25l86.343-86.342-109.732-274.291 63.995-64.003 164.595 219.434 91.413-91.414v-127.99h63.997l31.996 95.994 95.994 31.998v63.996l-127.99-0.002z" />
<glyph unicode="&#xe9b0;" d="M512 192l-64 128h-96v64c0 17.6-14.4 32-32 32h-288c-17.6 0-32-14.4-32-32v-256l32-32h40.583c-5.449-9.416-8.583-20.339-8.583-32 0-35.346 28.654-64 64-64s64 28.654 64 64c0 11.661-3.134 22.584-8.583 32h177.167c-5.449-9.416-8.584-20.339-8.584-32 0-35.346 28.654-64 64-64s64 28.654 64 64c0 11.661-3.135 22.584-8.584 32h40.584v96zM352 192v96h66.334l48-96h-114.334z" />
<glyph unicode="&#xe9b1;" d="M352-32h160l-128 512h-96l16-128h-96l16 128h-96l-128-512h160l16 128h160l16-128zM184 160l16 128h112l16-128h-144z" />
<glyph unicode="&#xe9b2;" d="M208 432c0 26.509 21.49 48 48 48s48-21.491 48-48c0-26.51-21.49-48-48-48s-48 21.49-48 48zM320 320l164.798 71.086-11.885 29.712-200.913-68.798h-32l-200.913 68.798-11.885-29.712 164.798-71.086v-128l-65.635-212.285 29.92-11.35 92.858 207.635h13.714l92.858-207.635 29.92 11.35-65.635 212.285z" />
<glyph unicode="&#xe9b3;" d="M512 256h-50.462c-13.82 89.12-84.418 159.718-173.538 173.538v50.462h-64v-50.462c-89.12-13.82-159.718-84.418-173.538-173.538h-50.462v-64h50.462c13.82-89.12 84.418-159.718 173.538-173.538v-50.462h64v50.462c89.12 13.82 159.718 84.418 173.538 173.538h50.462v64zM396.411 256h-49.881c-9.642 27.275-31.255 48.889-58.53 58.53v49.881c53.757-12.245 96.166-54.655 108.411-108.411zM256 192c-17.673 0-32 14.327-32 32s14.327 32 32 32c17.673 0 32-14.327 32-32s-14.327-32-32-32zM224 364.411v-49.881c-27.275-9.641-48.889-31.255-58.53-58.53h-49.881c12.245 53.756 54.655 96.166 108.411 108.411zM115.589 192h49.881c9.641-27.275 31.255-48.889 58.53-58.53v-49.881c-53.756 12.245-96.166 54.654-108.411 108.411zM288 83.589v49.881c27.275 9.642 48.889 31.255 58.53 58.53h49.881c-12.245-53.757-54.654-96.166-108.411-108.411z" />
<glyph unicode="&#xe9b4;" d="M480 480l-224-64-224 64c0 0-2.25-25.849 0-64l224-70.045 224 70.045c2.249 38.151 0 64 0 64zM36.095 382.447c11.993-125.348 56.745-336.117 219.905-414.447 163.16 78.33 207.912 289.099 219.905 414.447l-219.905-82.679-219.905 82.679z" />
<glyph unicode="&#xe9b5;" d="M192 480l-192-256h192l-128-256 448 320h-256l192 192z" />
<glyph unicode="&#xe9b6;" d="M320 406.706v-67.979c18.103-7.902 34.75-19.204 49.137-33.59 30.221-30.22 46.863-70.4 46.863-113.137s-16.643-82.917-46.863-113.137c-30.22-30.22-70.399-46.863-113.137-46.863s-82.917 16.643-113.137 46.863c-30.22 30.22-46.863 70.4-46.863 113.137s16.643 82.917 46.863 113.137c14.387 14.387 31.034 25.689 49.137 33.591v67.978c-92.524-27.54-160-113.236-160-214.706 0-123.712 100.289-224 224-224s224 100.288 224 224c0 101.47-67.475 187.166-160 214.706zM224 480h64v-256h-64z" />
<glyph unicode="&#xe9b7;" d="M512 338.75l-45.253 45.25-89.373-89.376-50.75 50.751 89.375 89.375-45.25 45.25-89.375-89.375-57.374 57.375-43.313-43.312 256.001-256 43.312 43.311-57.376 57.376 89.376 89.375zM397.020 143.105l-221.912 221.912c-47.909-57.452-102.26-146.227-64.698-222.608l-66.124-66.124c-15.556-15.557-15.556-41.012 0-56.568l7.429-7.429c15.557-15.557 41.013-15.557 56.569 0l66.123 66.122c76.382-37.566 165.159 16.783 222.613 64.695z" />
<glyph unicode="&#xe9b8;" d="M464 416h-144c0 35.346-28.653 64-64 64s-64-28.654-64-64h-144c-8.836 0-16-7.164-16-16v-416c0-8.837 7.164-16 16-16h416c8.837 0 16 7.163 16 16v416c0 8.836-7.163 16-16 16zM256 448c17.673 0 32-14.327 32-32s-14.327-32-32-32c-17.673 0-32 14.327-32 32s14.327 32 32 32zM448 0h-384v384h64v-48c0-8.836 7.164-16 16-16h224c8.837 0 16 7.164 16 16v48h64v-384zM224 50.745l-102.627 118.627 29.254 29.255 73.373-57.372 137.371 121.372 29.257-29.254z" />
<glyph unicode="&#xe9b9;" d="M192 64h320v-64h-320zM192 256h320v-64h-320zM192 448h320v-64h-320zM96 480v-128h-32v96h-32v32zM64 217v-25h64v-32h-96v73l64 30v25h-64v32h96v-73zM128 128v-160h-96v32h64v32h-64v32h64v32h-64v32z" />
<glyph unicode="&#xe9ba;" d="M0 480h128v-128h-128zM192 448h320v-64h-320zM0 288h128v-128h-128zM192 256h320v-64h-320zM0 96h128v-128h-128zM192 64h320v-64h-320z" />
<glyph unicode="&#xe9bb;" d="M192 448h320v-64h-320v64zM192 256h320v-64h-320v64zM192 64h320v-64h-320v64zM0 416c0 35.346 28.654 64 64 64s64-28.654 64-64c0-35.346-28.654-64-64-64s-64 28.654-64 64zM0 224c0 35.346 28.654 64 64 64s64-28.654 64-64c0-35.346-28.654-64-64-64s-64 28.654-64 64zM0 32c0 35.346 28.654 64 64 64s64-28.654 64-64c0-35.346-28.654-64-64-64s-64 28.654-64 64z" />
<glyph unicode="&#xe9bc;" d="M488 96h-8v104c0 30.878-25.121 56-56 56h-136v64h8c13.2 0 24 10.8 24 24v80c0 13.2-10.8 24-24 24h-80c-13.2 0-24-10.8-24-24v-80c0-13.2 10.8-24 24-24h8v-64h-136c-30.878 0-56-25.122-56-56v-104h-8c-13.2 0-24-10.8-24-24v-80c0-13.2 10.8-24 24-24h80c13.2 0 24 10.8 24 24v80c0 13.2-10.8 24-24 24h-8v96h128v-96h-8c-13.2 0-24-10.8-24-24v-80c0-13.2 10.8-24 24-24h80c13.2 0 24 10.8 24 24v80c0 13.2-10.8 24-24 24h-8v96h128v-96h-8c-13.2 0-24-10.8-24-24v-80c0-13.2 10.8-24 24-24h80c13.2 0 24 10.8 24 24v80c0 13.2-10.8 24-24 24zM96 0h-64v64h64v-64zM288 0h-64v64h64v-64zM224 352v64h64v-64h-64zM480 0h-64v64h64v-64z" />
<glyph unicode="&#xe9bd;" d="M32 384h448v-96h-448zM32 256h448v-96h-448zM32 128h448v-96h-448z" />
<glyph unicode="&#xe9be;" d="M0 384h448v-96h-448v96zM0 256h448v-96h-448v96zM0 128h448v-96h-448v96zM496 192l96-96 96 96zM688 224l-96 96-96-96z" horiz-adv-x="704" />
<glyph unicode="&#xe9bf;" d="M0 384h448v-96h-448v96zM0 256h448v-96h-448v96zM0 128h448v-96h-448v96zM496 256l96-96 96 96z" horiz-adv-x="704" />
<glyph unicode="&#xe9c0;" d="M0 384h448v-96h-448v96zM0 256h448v-96h-448v96zM0 128h448v-96h-448v96zM496 160l96 96 96-96z" horiz-adv-x="704" />
<glyph unicode="&#xe9c1;" d="M512 151.229c0 41.045-28.339 75.45-66.498 84.74-1.621 64.35-54.229 116.031-118.931 116.031-37.896 0-71.633-17.747-93.427-45.366-12.221 15.799-31.345 25.98-52.854 25.98-36.905 0-66.821-29.937-66.821-66.861 0-3.218 0.24-6.38 0.682-9.477-5.611 1.012-11.383 1.569-17.285 1.569-53.499 0.001-96.866-43.393-96.866-96.921 0-53.531 43.367-96.924 96.865-96.924l328.131 0.006c48.069 0.092 87.004 39.106 87.004 87.223z" />
<glyph unicode="&#xe9c2;" d="M445.502 299.97c-1.621 64.349-54.229 116.030-118.931 116.030-37.896 0-71.633-17.747-93.427-45.366-12.221 15.799-31.345 25.98-52.854 25.98-36.905 0-66.821-29.938-66.821-66.861 0-3.218 0.24-6.38 0.682-9.477-5.611 1.012-11.383 1.569-17.285 1.569-53.499 0.001-96.866-43.393-96.866-96.921 0-53.531 43.367-96.924 96.865-96.924h45.88l113.255-117.255 113.255 117.255 55.741 0.006c48.069 0.092 87.004 39.105 87.004 87.223 0 41.045-28.339 75.45-66.498 84.741zM256 64l-96 96h64v96h64v-96h64l-96-96z" />
<glyph unicode="&#xe9c3;" d="M446.134 286.755c1.222 5.555 1.866 11.324 1.866 17.245 0 44.183-35.817 80-80 80-7.111 0-14.007-0.934-20.566-2.676-12.399 38.676-48.645 66.676-91.434 66.676-43.674 0-80.527-29.168-92.163-69.085-11.371 3.311-23.396 5.085-35.837 5.085-70.692 0-128-57.308-128-128 0-70.694 57.308-128 128-128h64v-96h128v96h112c44.183 0 80 35.816 80 80 0 39.36-28.427 72.081-65.866 78.755zM288 160v-96h-64v96h-80l112 112 112-112h-80z" />
<glyph unicode="&#xe9c4;" d="M446.134 222.755c1.221 5.554 1.866 11.323 1.866 17.245 0 44.183-35.817 80-80 80-7.112 0-14.007-0.934-20.567-2.676-12.398 38.676-48.644 66.676-91.433 66.676-43.674 0-80.527-29.168-92.163-69.085-11.371 3.31-23.396 5.085-35.837 5.085-70.692 0-128-57.308-128-128s57.308-128 128-128h304c44.183 0 80 35.816 80 80 0 39.359-28.427 72.080-65.866 78.755zM208 96l-80 80 32 32 48-48 112 112 32-32-144-144z" />
<glyph unicode="&#xe9c7;" d="M368 256l-128-128-128 128h80v192h96v-192zM240 128h-240v-128h480v128h-240zM448 64h-64v32h64v-32z" />
<glyph unicode="&#xe9c8;" d="M240 128h-240v-128h480v128h-240zM448 64h-64v32h64v-32zM112 320l128 128 128-128h-80v-160h-96v160z" />
<glyph unicode="&#xe9c9;" d="M240 448c-132.548 0-240-107.452-240-240s107.452-240 240-240c132.549 0 240 107.451 240 240s-107.451 240-240 240zM375.795 128c4.29 20.227 6.998 41.696 7.879 64h63.723c-1.668-22.098-6.812-43.557-15.34-64h-56.262zM104.205 288c-4.29-20.227-6.998-41.696-7.879-64h-63.722c1.668 22.097 6.811 43.557 15.339 64h56.262zM343.018 288c4.807-20.481 7.699-41.927 8.64-64h-95.658v64h87.018zM256 320v93.669c7.295-2.123 14.522-5.685 21.614-10.685 13.291-9.37 26.006-23.804 36.77-41.743 7.441-12.401 13.876-26.208 19.248-41.242h-77.632zM165.616 361.242c10.764 17.939 23.478 32.374 36.77 41.743 7.091 5 14.319 8.562 21.614 10.685v-93.67h-77.632c5.373 15.033 11.808 28.84 19.248 41.242zM224 288v-64h-95.657c0.94 22.073 3.833 43.519 8.639 64h87.018zM47.944 128c-8.528 20.443-13.671 41.902-15.339 64h63.722c0.881-22.304 3.589-43.773 7.879-64h-56.262zM128.343 192h95.657v-64h-87.018c-4.806 20.48-7.699 41.927-8.639 64zM224 96v-93.67c-7.294 2.123-14.522 5.686-21.614 10.685-13.292 9.37-26.007 23.805-36.77 41.743-7.441 12.402-13.875 26.209-19.249 41.242h77.633zM314.384 54.758c-10.764-17.938-23.479-32.373-36.77-41.743-7.092-4.999-14.319-8.562-21.614-10.685v93.67h77.633c-5.373-15.033-11.808-28.84-19.249-41.242zM256 128v64h95.657c-0.94-22.073-3.833-43.52-8.64-64h-87.017zM383.674 224c-0.881 22.304-3.589 43.773-7.879 64h56.262c8.528-20.443 13.672-41.903 15.34-64h-63.723zM415.329 320h-47.95c-9.319 29.381-22.188 55.147-37.658 75.714 21.268-10.17 40.529-23.808 57.357-40.636 10.74-10.739 20.181-22.469 28.251-35.078zM92.922 355.078c16.829 16.829 36.090 30.466 57.357 40.636-15.471-20.567-28.338-46.333-37.658-75.714h-47.949c8.069 12.609 17.511 24.339 28.25 35.078zM64.672 96h47.949c9.32-29.381 22.188-55.147 37.659-75.715-21.268 10.17-40.529 23.808-57.357 40.637-10.74 10.739-20.182 22.469-28.251 35.078zM387.078 60.922c-16.828-16.829-36.090-30.467-57.357-40.637 15.471 20.567 28.339 46.334 37.658 75.715h47.95c-8.070-12.609-17.511-24.339-28.251-35.078z" />
<glyph unicode="&#xe9ca;" d="M256 480c-141.385 0-256-114.615-256-256s114.615-256 256-256 256 114.615 256 256-114.615 256-256 256zM256-0.001c-31.479 0-61.436 6.506-88.615 18.226l116.574 131.145c2.603 2.929 4.041 6.711 4.041 10.63v48c0 8.837-7.163 16-16 16-56.495 0-116.102 58.731-116.687 59.313-3 3.001-7.070 4.687-11.313 4.687h-64c-8.836 0-16-7.164-16-16v-96c0-6.061 3.424-11.601 8.845-14.311l55.155-27.578v-93.943c-58.026 40.478-96 107.716-96 183.832 0 34.357 7.745 66.903 21.569 96h58.431c4.244 0 8.313 1.686 11.314 4.686l64 64c3 3.001 4.686 7.070 4.686 11.314v38.706c20.281 6.037 41.759 9.294 64 9.294 35.203 0 68.502-8.13 98.141-22.6-2.072-1.751-4.088-3.582-6.023-5.518-18.133-18.132-28.118-42.239-28.118-67.882s9.985-49.75 28.118-67.882c18.217-18.216 42.609-28.132 67.817-28.13 1.583 0 3.171 0.040 4.759 0.118 6.907-25.901 19.376-93.328-4.202-186.167-0.222-0.872-0.348-1.744-0.421-2.612-40.662-41.54-97.35-67.328-160.071-67.328z" />
<glyph unicode="&#xe9cb;" d="M220.118 162.117c-6.655 0-13.308 2.538-18.385 7.615-47.567 47.568-47.567 124.967 0 172.535l96 96c23.044 23.043 53.68 35.733 86.267 35.733s63.224-12.69 86.268-35.732c47.566-47.568 47.566-124.967 0-172.535l-43.883-43.883c-10.154-10.154-26.615-10.154-36.77 0-10.153 10.153-10.153 26.616 0 36.77l43.883 43.883c27.292 27.293 27.292 71.702 0 98.995-13.221 13.221-30.8 20.502-49.498 20.502s-36.276-7.281-49.498-20.503l-96-95.999c-27.293-27.293-27.293-71.703 0-98.996 10.154-10.153 10.153-26.616 0-36.77-5.075-5.076-11.731-7.615-18.384-7.615zM128-26c-32.588 0-63.225 12.69-86.267 35.732-47.567 47.568-47.567 124.967 0 172.535l43.882 43.882c10.154 10.153 26.617 10.153 36.77 0 10.154-10.153 10.154-26.616 0-36.77l-43.882-43.882c-27.293-27.293-27.293-71.703 0-98.996 13.22-13.22 30.799-20.501 49.497-20.501s36.276 7.281 49.499 20.503l96 95.999c27.292 27.293 27.292 71.703 0 98.996-10.154 10.154-10.153 26.616 0 36.77s26.616 10.153 36.77-0.001c47.566-47.567 47.566-124.966 0.001-172.534l-96.001-96c-23.045-23.044-53.682-35.733-86.269-35.733z" />
<glyph unicode="&#xe9cc;" d="M0 480h64v-512h-64v512zM416 158.499c41.312 0 77.285 9.992 96 24.75v256c-18.715-14.759-54.688-24.751-96-24.751s-77.285 9.992-96 24.751v-256c18.715-14.758 54.688-24.75 96-24.75zM304 463.736c-23.453 9.97-57.76 16.264-96 16.264-48.198 0-90.167-9.992-112-24.751v-256c21.833 14.759 63.802 24.751 112 24.751 38.24 0 72.547-6.294 96-16.264v256z" />
<glyph unicode="&#xe9cd;" d="M332.916 316.476l-32.476 32.461-162.405-162.371c-26.907-26.896-26.907-70.524 0-97.422 26.902-26.896 70.53-26.896 97.437 0l194.886 194.854c44.857 44.831 44.857 117.531 0 162.363-44.833 44.852-117.556 44.852-162.391 0l-204.615-204.589c-0.145-0.152-0.306-0.288-0.438-0.423-62.551-62.548-62.551-163.928 0-226.453 62.527-62.528 163.934-62.528 226.494 0 0.137 0.137 0.258 0.284 0.41 0.438l0.016-0.017 139.666 139.646-32.493 32.46-139.665-139.631c-0.148-0.134-0.282-0.285-0.423-0.422-44.537-44.529-116.99-44.529-161.538 0-44.531 44.521-44.531 116.961 0 161.489 0.152 0.152 0.302 0.291 0.444 0.423l-0.023 0.030 204.64 204.583c26.856 26.869 70.572 26.869 97.443 0 26.856-26.867 26.856-70.574 0-97.42l-194.886-194.85c-8.968-8.961-23.527-8.961-32.486 0-8.947 8.943-8.947 23.516 0 32.46l162.403 162.391z" />
<glyph unicode="&#xe9ce;" d="M256 384c-111.659 0-208.441-65.021-256-160 47.559-94.979 144.341-160 256-160 111.656 0 208.438 65.021 256 160-47.558 94.979-144.344 160-256 160zM382.225 299.148c30.081-19.187 55.571-44.887 74.717-75.148-19.146-30.261-44.637-55.961-74.718-75.148-37.797-24.109-81.445-36.852-126.224-36.852-44.78 0-88.429 12.743-126.226 36.852-30.079 19.186-55.569 44.886-74.716 75.148 19.146 30.262 44.637 55.962 74.717 75.148 1.959 1.25 3.938 2.461 5.93 3.65-4.98-13.664-7.705-28.411-7.705-43.798 0-70.691 57.308-128 128-128s128 57.309 128 128c0 15.387-2.726 30.134-7.704 43.799 1.989-1.189 3.969-2.401 5.929-3.651v0zM256 272c0-26.51-21.49-48-48-48s-48 21.49-48 48 21.49 48 48 48 48-21.491 48-48z" />
<glyph unicode="&#xe9cf;" d="M512 416h-64v64h-64v-64h-64v-64h64v-64h64v64h64zM431.931 256.986c9.218-10.239 17.596-21.265 25.011-32.986-19.146-30.261-44.637-55.961-74.718-75.148-37.797-24.109-81.445-36.852-126.224-36.852-44.78 0-88.43 12.743-126.227 36.852-30.078 19.186-55.568 44.886-74.715 75.148 19.146 30.262 44.637 55.962 74.717 75.148 1.959 1.25 3.938 2.461 5.931 3.65-4.981-13.664-7.706-28.411-7.706-43.798 0-70.691 57.308-128 128-128 70.69 0 128 57.309 128 128 0 0.346-0.009 0.69-0.012 1.036-54.642 14.069-95.149 63.315-95.966 122.155-10.513 1.19-21.197 1.809-32.022 1.809-111.659 0-208.441-65.021-256-160 47.559-94.979 144.341-160 256-160 111.655 0 208.438 65.021 256 160-8.82 17.615-19.338 34.197-31.325 49.527-14.64-8.589-31.136-14.355-48.744-16.541zM208 320c26.51 0 48-21.491 48-48s-21.49-48-48-48-48 21.49-48 48 21.49 48 48 48z" />
<glyph unicode="&#xe9d0;" d="M320 416h192v-64h-192v64zM435.16 320h-147.16v62.194c-10.507 1.188-21.182 1.806-32 1.806-111.659 0-208.441-65.021-256-160 47.559-94.979 144.341-160 256-160 111.655 0 208.438 65.021 256 160-18.698 37.343-45.010 70.050-76.84 96zM208 320c26.51 0 48-21.491 48-48s-21.49-48-48-48-48 21.49-48 48 21.49 48 48 48zM382.224 148.852c-37.797-24.109-81.445-36.852-126.224-36.852-44.78 0-88.43 12.743-126.227 36.852-30.078 19.186-55.568 44.886-74.715 75.148 19.146 30.262 44.637 55.962 74.717 75.148 1.959 1.25 3.938 2.461 5.931 3.65-4.981-13.664-7.706-28.411-7.706-43.798 0-70.691 57.308-128 128-128 70.69 0 128 57.309 128 128 0 15.387-2.727 30.134-7.704 43.799 1.988-1.189 3.969-2.401 5.929-3.651 30.081-19.187 55.571-44.887 74.717-75.148-19.146-30.261-44.637-55.961-74.718-75.148z" />
<glyph unicode="&#xe9d1;" d="M472.971 472.971c-9.373 9.372-24.568 9.372-33.941 0l-101.082-101.082c-25.969 7.877-53.474 12.111-81.948 12.111-111.659 0-208.441-65.021-256-160 20.561-41.062 50.324-76.52 86.511-103.548l-79.481-79.481c-9.373-9.373-9.373-24.568 0-33.941 4.686-4.687 10.828-7.030 16.97-7.030s12.284 2.343 16.971 7.029l432 432c9.372 9.373 9.372 24.569 0 33.942zM208 320c21.12 0 39.041-13.647 45.46-32.598l-60.862-60.862c-18.951 6.419-32.598 24.34-32.598 45.46 0 26.51 21.49 48 48 48zM55.058 224c19.146 30.262 44.637 55.962 74.717 75.148 1.959 1.25 3.938 2.461 5.931 3.65-4.981-13.664-7.706-28.411-7.706-43.798 0-27.445 8.643-52.869 23.35-73.709l-30.462-30.462c-26.223 18.421-48.601 41.941-65.83 69.171zM384 259c0 13.583-2.128 26.667-6.051 38.949l-160.904-160.904c12.284-3.921 25.371-6.045 38.955-6.045 70.691 0 128 57.309 128 128zM415.013 335.013l-34.681-34.681c0.632-0.393 1.265-0.784 1.893-1.184 30.081-19.187 55.571-44.887 74.717-75.148-19.146-30.261-44.637-55.961-74.718-75.148-37.797-24.109-81.445-36.852-126.224-36.852-19.332 0-38.451 2.38-56.981 7.020l-38.447-38.447c29.859-10.731 61.975-16.573 95.428-16.573 111.655 0 208.438 65.021 256 160-22.511 44.958-56.059 83.198-96.987 111.013z" />
<glyph unicode="&#xe9d2;" d="M96 480v-512l160 160 160-160v512z" />
<glyph unicode="&#xe9d3;" d="M128 416v-448l160 160 160-160v448zM384 480h-320v-448l32 32v384h288z" />
<glyph unicode="&#xe9d4;" d="M256 64c17.673 0 32-14.327 32-32v-32c0-17.673-14.327-32-32-32s-32 14.327-32 32v32c0 17.673 14.327 32 32 32zM256 384c-17.673 0-32 14.327-32 32v32c0 17.673 14.327 32 32 32s32-14.327 32-32v-32c0-17.673-14.327-32-32-32zM480 256c17.673 0 32-14.327 32-32s-14.327-32-32-32h-32c-17.674 0-32 14.327-32 32s14.326 32 32 32h32zM96 224c0-17.673-14.327-32-32-32h-32c-17.673 0-32 14.327-32 32s14.327 32 32 32h32c17.673 0 32-14.327 32-32zM414.392 110.863l22.628-22.629c12.496-12.495 12.496-32.758 0-45.254-12.497-12.496-32.759-12.496-45.255 0l-22.628 22.628c-12.496 12.495-12.496 32.758 0 45.255 12.497 12.496 32.759 12.496 45.255 0zM97.608 337.137l-22.628 22.628c-12.497 12.497-12.497 32.758 0 45.255s32.758 12.497 45.255 0l22.628-22.628c12.497-12.497 12.497-32.758 0-45.255s-32.758-12.497-45.255 0zM414.392 337.137c-12.496-12.496-32.758-12.496-45.255 0-12.496 12.497-12.496 32.758 0 45.255l22.628 22.627c12.496 12.497 32.758 12.497 45.255 0 12.496-12.497 12.496-32.758 0-45.255l-22.628-22.627zM97.608 110.863c12.496 12.496 32.759 12.496 45.254 0 12.497-12.497 12.497-32.76 0-45.255l-22.627-22.628c-12.497-12.496-32.758-12.496-45.255 0s-12.497 32.759 0 45.254l22.628 22.629zM256 352c-70.692 0-128-57.308-128-128s57.308-128 128-128c70.691 0 128 57.309 128 128s-57.308 128-128 128zM256 144c-44.183 0-80 35.817-80 80s35.817 80 80 80 80-35.817 80-80-35.817-80-80-80z" />
<glyph unicode="&#xe9d7;" d="M512 281.475l-176.89 25.704-79.11 160.291-79.108-160.291-176.892-25.704 128-124.769-30.216-176.176 158.216 83.179 158.216-83.179-30.217 176.176 128.001 124.769zM256 103.251l-111.731-58.74 21.338 124.415-90.393 88.111 124.92 18.152 55.866 113.198 55.868-113.198 124.918-18.152-90.394-88.111 21.339-124.415-111.731 58.74z" />
<glyph unicode="&#xe9d9;" d="M512 281.475l-176.89 25.704-79.11 160.291-79.108-160.291-176.892-25.704 128-124.769-30.216-176.176 158.216 83.179 158.216-83.179-30.217 176.176 128.001 124.769z" />
<glyph unicode="&#xe9da;" d="M377.594 448c-53.815 0-100.129-43.777-121.582-89.5-21.469 45.722-67.789 89.5-121.608 89.5-74.191 0-134.404-60.22-134.404-134.416 0-150.923 152.25-190.497 256.011-339.709 98.077 148.288 255.989 193.603 255.989 339.709 0 74.196-60.215 134.416-134.406 134.416z" />
<glyph unicode="&#xe9db;" d="M377.594 448c74.191 0 134.406-60.22 134.406-134.416 0-146.105-157.912-191.421-255.989-339.709-103.761 149.212-256.011 188.786-256.011 339.709 0 74.196 60.213 134.416 134.404 134.416 30.177 0 57.995-13.765 80.398-33.917l-38.802-62.083 112-64-64-160 176 192-112 64 30.948 46.423c17.71 10.884 37.605 17.577 58.646 17.577z" />
<glyph unicode="&#xe9dc;" d="M288 432c0-26.51-21.49-48-48-48s-48 21.49-48 48c0 26.51 21.49 48 48 48s48-21.49 48-48zM288 352h-96c-17.673 0-32-14.327-32-32v-160h32v-192h40v192h16v-192h40v192h32v160c0 17.673-14.326 32-32 32z" />
<glyph unicode="&#xe9dd;" d="M288 432c0-26.51-21.49-48-48-48s-48 21.49-48 48c0 26.51 21.49 48 48 48s48-21.49 48-48zM359.5 224l24.5 17.75-66.643 103.058c-2.96 4.49-7.979 7.192-13.357 7.192h-128c-5.378 0-10.396-2.702-13.357-7.192l-66.643-103.058 24.5-17.75 55.322 71.798 19.229-44.87-67.051-122.928h61.333l10.667-160h32v160h16v-160h32l10.667 160h61.333l-67.052 122.929 19.229 44.87 55.323-71.799z" />
<glyph unicode="&#xea07;" d="M256 433.613l214.551-427.613h-429.103l214.552 427.613zM256 480c-11.035 0-22.070-7.441-30.442-22.324l-218.537-435.556c-16.743-29.766-2.5-54.12 31.652-54.12h434.654c34.15 0 48.396 24.354 31.65 54.12h0.001l-218.537 435.556c-8.371 14.883-19.406 22.324-30.441 22.324v0zM288 64c0-17.673-14.327-32-32-32s-32 14.327-32 32c0 17.673 14.327 32 32 32s32-14.327 32-32zM256 128c-17.673 0-32 14.327-32 32v96c0 17.673 14.327 32 32 32s32-14.327 32-32v-96c0-17.673-14.327-32-32-32z" />
<glyph unicode="&#xea08;" d="M256 432c-55.559 0-107.792-21.636-147.078-60.922s-60.922-91.519-60.922-147.078c0-55.559 21.636-107.792 60.922-147.078s91.519-60.922 147.078-60.922c55.559 0 107.792 21.636 147.078 60.922s60.922 91.519 60.922 147.078c0 55.559-21.636 107.792-60.922 147.078s-91.519 60.922-147.078 60.922zM256 480v0c141.385 0 256-114.615 256-256s-114.615-256-256-256c-141.385 0-256 114.615-256 256s114.615 256 256 256zM224 128h64v-64h-64zM224 384h64v-192h-64z" />
<glyph unicode="&#xea09;" d="M224 128h64v-64h-64zM352 352c17.673 0 32-14.327 32-32v-96l-96-64h-64v32l96 64v32h-160v64h192zM256 432c-55.559 0-107.792-21.636-147.078-60.922s-60.922-91.519-60.922-147.078c0-55.559 21.636-107.792 60.922-147.078s91.519-60.922 147.078-60.922c55.559 0 107.792 21.636 147.078 60.922s60.922 91.519 60.922 147.078c0 55.559-21.636 107.792-60.922 147.078s-91.519 60.922-147.078 60.922zM256 480v0c141.385 0 256-114.615 256-256s-114.615-256-256-256c-141.385 0-256 114.615-256 256s114.615 256 256 256z" />
<glyph unicode="&#xea0a;" d="M496 288h-176v176c0 8.836-7.164 16-16 16h-96c-8.836 0-16-7.164-16-16v-176h-176c-8.836 0-16-7.164-16-16v-96c0-8.836 7.164-16 16-16h176v-176c0-8.836 7.164-16 16-16h96c8.836 0 16 7.164 16 16v176h176c8.836 0 16 7.164 16 16v96c0 8.836-7.164 16-16 16z" />
<glyph unicode="&#xea0b;" d="M0 272v-96c0-8.836 7.164-16 16-16h480c8.836 0 16 7.164 16 16v96c0 8.836-7.164 16-16 16h-480c-8.836 0-16-7.164-16-16z" />
<glyph unicode="&#xea0c;" d="M224 328c0 13.2 10.8 24 24 24h16c13.2 0 24-10.8 24-24v-16c0-13.2-10.8-24-24-24h-16c-13.2 0-24 10.8-24 24v16zM320 96h-128v32h32v96h-32v32h96v-128h32zM256 480c-141.385 0-256-114.615-256-256s114.615-256 256-256 256 114.615 256 256-114.615 256-256 256zM256 16c-114.875 0-208 93.125-208 208s93.125 208 208 208 208-93.125 208-208-93.125-208-208-208z" />
<glyph unicode="&#xea0d;" d="M256 480c-141.385 0-256-114.615-256-256s114.615-256 256-256 256 114.615 256 256-114.615 256-256 256zM256 16c-114.875 0-208 93.125-208 208s93.125 208 208 208 208-93.125 208-208-93.125-208-208-208zM336 352l-80-80-80 80-48-48 80-80-80-80 48-48 80 80 80-80 48 48-80 80 80 80z" />
<glyph unicode="&#xea0e;" d="M437.020 405.020c-48.353 48.351-112.64 74.98-181.020 74.98s-132.667-26.629-181.020-74.98c-48.351-48.353-74.98-112.64-74.98-181.020s26.629-132.667 74.98-181.020c48.353-48.351 112.64-74.98 181.020-74.98s132.667 26.629 181.020 74.98c48.351 48.353 74.98 112.64 74.98 181.020s-26.629 132.667-74.98 181.020zM448 224c0-41.407-13.177-79.794-35.556-111.19l-267.633 267.634c31.396 22.379 69.782 35.556 111.189 35.556 105.869 0 192-86.131 192-192zM64 224c0 41.407 13.177 79.793 35.556 111.189l267.635-267.634c-31.397-22.378-69.784-35.555-111.191-35.555-105.869 0-192 86.131-192 192z" />
<glyph unicode="&#xea0f;" d="M507.331 68.67c-0.002 0.002-0.004 0.004-0.006 0.005l-155.322 155.325 155.322 155.325c0.002 0.002 0.004 0.003 0.006 0.005 1.672 1.673 2.881 3.627 3.656 5.708 2.123 5.688 0.912 12.341-3.662 16.915l-73.373 73.373c-4.574 4.573-11.225 5.783-16.914 3.66-2.080-0.775-4.035-1.984-5.709-3.655 0-0.002-0.002-0.003-0.004-0.005l-155.324-155.326-155.324 155.325c-0.002 0.002-0.003 0.003-0.005 0.005-1.673 1.671-3.627 2.88-5.707 3.655-5.69 2.124-12.341 0.913-16.915-3.66l-73.374-73.374c-4.574-4.574-5.784-11.226-3.661-16.914 0.776-2.080 1.985-4.036 3.656-5.708 0.002-0.001 0.003-0.003 0.005-0.005l155.325-155.324-155.325-155.326c-0.001-0.002-0.003-0.003-0.004-0.005-1.671-1.673-2.88-3.627-3.657-5.707-2.124-5.688-0.913-12.341 3.661-16.915l73.374-73.373c4.575-4.574 11.226-5.784 16.915-3.661 2.080 0.776 4.035 1.985 5.708 3.656 0.001 0.002 0.003 0.003 0.005 0.005l155.324 155.325 155.324-155.325c0.002-0.001 0.004-0.003 0.006-0.004 1.674-1.672 3.627-2.881 5.707-3.657 5.689-2.123 12.342-0.913 16.914 3.661l73.373 73.374c4.574 4.574 5.785 11.227 3.662 16.915-0.776 2.080-1.985 4.034-3.657 5.707z" />
<glyph unicode="&#xea10;" d="M432 416l-240-240-112 112-80-80 192-192 320 320z" />
<glyph unicode="&#xea11;" d="M198.717 21.152l-198.934 195.8 98.689 97.135 100.245-98.666 214.81 211.426 98.689-97.135-313.499-308.56zM53.956 216.952l144.762-142.481 259.328 255.241-44.518 43.816-214.81-211.426-100.245 98.667-44.517-43.817z" />
<glyph unicode="&#xea13;" d="M192 224h-160v64h160v64l96-96-96-96zM512 480v-416l-192-96v96h-192v128h32v-96h160v288l128 64h-288v-128h-32v160z" />
<glyph unicode="&#xea14;" d="M384 160v64h-160v64h160v64l96-96zM352 192v-128h-160v-96l-192 96v416h352v-160h-32v128h-256l128-64v-288h128v96z" />
<glyph unicode="&#xea2d;" d="M64 320h320v-96l128 128-128 128v-96h-384v-192h64zM448 128h-320v96l-128-128 128-128v96h384v192h-64z" />
<glyph unicode="&#xea2e;" d="M444.84 396.84c-46.804 51.108-114.077 83.16-188.84 83.16-141.385 0-256-114.615-256-256h48c0 114.875 93.125 208 208 208 61.51 0 116.771-26.709 154.848-69.153l-74.848-74.847h176v176l-67.16-67.16zM464 224c0-114.875-93.125-208-208-208-61.51 0-116.771 26.709-154.847 69.153l74.847 74.847h-176v-176l67.16 67.16c46.804-51.108 114.077-83.16 188.84-83.16 141.385 0 256 114.615 256 256h-48z" />
<glyph unicode="&#xea2f;" d="M391.994 103.994c-32.052 0-62.186 12.48-84.85 35.144l-51.144 51.141-51.138-51.135c-22.666-22.668-52.8-35.15-84.853-35.15-32.059 0-62.195 12.482-84.861 35.15s-35.148 52.802-35.148 84.856 12.482 62.19 35.148 84.857c22.667 22.666 52.804 35.148 84.857 35.148 32.054 0 62.19-12.482 84.856-35.148l51.139-51.138 51.138 51.138c22.666 22.666 52.802 35.149 84.856 35.149 32.056 0 62.192-12.483 84.855-35.149 22.669-22.667 35.151-52.803 35.151-84.857 0-32.056-12.482-62.191-35.15-84.855-22.663-22.668-52.799-35.151-84.856-35.151zM340.86 172.856c13.661-13.655 31.82-21.177 51.134-21.176 19.317 0 37.479 7.522 51.138 21.181 13.658 13.661 21.182 31.822 21.182 51.139s-7.523 37.478-21.182 51.137c-13.66 13.659-31.82 21.182-51.138 21.182-19.316 0-37.478-7.522-51.139-21.182l-51.134-51.137 51.139-51.144zM120.006 296.319c-19.317 0-37.478-7.522-51.137-21.182-13.66-13.659-21.182-31.82-21.182-51.137 0-19.316 7.522-37.477 21.182-51.138 13.66-13.658 31.821-21.182 51.137-21.182 19.317 0 37.478 7.522 51.136 21.181l51.138 51.139-51.138 51.137c-13.659 13.66-31.82 21.183-51.136 21.182v0z" />
<glyph unicode="&#xea30;" d="M384 128h-50.745l-80 80 80 80h50.745v-80l112 112-112 112v-80h-64c-8.487 0-16.626-3.372-22.627-9.373l-89.373-89.372-89.373 89.373c-6 6-14.14 9.372-22.627 9.372h-96v-64h82.745l80-80-80-80h-82.745v-64h96c8.487 0 16.626 3.371 22.627 9.373l89.373 89.372 89.373-89.372c6.001-6.002 14.14-9.373 22.627-9.373h64v-80l112 112-112 112v-80z" />
<glyph unicode="&#xea45;" d="M480 480h32v-256h-32v256zM0 224h32v-256h-32v256zM160 128h352v-64h-352v-80l-112 112 112 112v-80zM352 320h-352v64h352v80l112-112-112-112z" />
<glyph unicode="&#xea46;" d="M352 224v-192h32v192h80l-96 96-96-96zM32 384h48v-32h-48v32zM96 384h48v-32h-48v32zM160 384h32v-48h-32v48zM32 272h32v-48h-32v48zM80 256h48v-32h-48v32zM144 256h48v-32h-48v32zM32 336h32v-48h-32v48zM160 320h32v-48h-32v48zM160 128v-96h-96v96h96zM192 160h-160v-160h160v160z" />
<glyph unicode="&#xea47;" d="M384 128v192h-32v-192h-80l96-96 96 96zM160 352v-96h-96v96h96zM192 384h-160v-160h160v160zM32 160h48v-32h-48v32zM96 160h48v-32h-48v32zM160 160h32v-48h-32v48zM32 48h32v-48h-32v48zM80 32h48v-32h-48v32zM144 32h48v-32h-48v32zM32 112h32v-48h-32v48zM160 96h32v-48h-32v48z" />
<glyph unicode="&#xea48;" d="M160 96v384h-64v-384h-80l112-112 112 112h-80zM464-32h-128c-5.9 0-11.322 3.248-14.107 8.45-2.783 5.202-2.479 11.515 0.795 16.425l111.416 167.125h-98.104c-8.836 0-16 7.164-16 16s7.164 16 16 16h128c5.9 0 11.322-3.248 14.107-8.45 2.783-5.202 2.479-11.515-0.795-16.425l-111.415-167.125h98.103c8.836 0 16-7.164 16-16s-7.164-16-16-16zM510.311 279.157l-96.001 192c-2.71 5.421-8.251 8.845-14.311 8.845s-11.601-3.424-14.312-8.845l-95.998-192c-3.952-7.903-0.748-17.515 7.155-21.466 2.297-1.148 4.738-1.693 7.144-1.693 5.868 0 11.52 3.242 14.322 8.849l27.578 55.155h108.223l27.578-55.155c3.951-7.903 13.562-11.105 21.466-7.155s11.108 13.562 7.156 21.465zM361.889 352.002l38.11 76.223 38.112-76.223h-76.222z" />
<glyph unicode="&#xea49;" d="M160 96v384h-64v-384h-80l112-112 112 112h-80zM464 256h-128c-5.9 0-11.322 3.248-14.107 8.45-2.783 5.203-2.479 11.515 0.795 16.425l111.416 167.125h-98.104c-8.836 0-16 7.164-16 16s7.164 16 16 16h128c5.9 0 11.322-3.248 14.107-8.45 2.783-5.203 2.479-11.515-0.795-16.425l-111.415-167.125h98.103c8.836 0 16-7.164 16-16s-7.164-16-16-16zM510.311-8.845l-96.001 192c-2.71 5.421-8.251 8.845-14.311 8.845s-11.601-3.424-14.312-8.845l-95.998-192c-3.952-7.903-0.748-17.515 7.155-21.466 2.297-1.148 4.738-1.693 7.144-1.693 5.868 0 11.52 3.242 14.322 8.849l27.579 55.155h108.223l27.578-55.155c3.951-7.903 13.562-11.105 21.466-7.155s11.107 13.562 7.155 21.465zM361.889 64l38.11 76.223 38.113-76.223h-76.223z" />
<glyph unicode="&#xea4a;" d="M160 96v384h-64v-384h-80l112-112 112 112h-80zM432 256c-8.837 0-16 7.164-16 16v176h-16c-8.837 0-16 7.164-16 16s7.163 16 16 16h32c8.837 0 16-7.164 16-16v-192c0-8.836-7.163-16-16-16zM464 192h-96c-8.837 0-16-7.163-16-16v-96c0-8.837 7.163-16 16-16h80v-64h-80c-8.837 0-16-7.163-16-16s7.163-16 16-16h96c8.837 0 16 7.163 16 16v192c0 8.837-7.163 16-16 16zM384 160h64v-64h-64v64z" />
<glyph unicode="&#xea4b;" d="M160 96v384h-64v-384h-80l112-112 112 112h-80zM432-32c-8.837 0-16 7.164-16 16v176h-16c-8.837 0-16 7.164-16 16s7.163 16 16 16h32c8.837 0 16-7.164 16-16v-192c0-8.836-7.163-16-16-16zM464 480h-96c-8.837 0-16-7.163-16-16v-96c0-8.837 7.163-16 16-16h80v-64h-80c-8.837 0-16-7.163-16-16s7.163-16 16-16h96c8.837 0 16 7.163 16 16v192c0 8.837-7.163 16-16 16zM384 448h64v-64h-64v64z" />
<glyph unicode="&#xea4c;" d="M160 96v384h-64v-384h-80l112-112 112 112h-80zM224 192h288v-64h-288v64zM224 288h224v-64h-224v64zM224 384h160v-64h-160v64zM224 480h96v-64h-96v64z" />
<glyph unicode="&#xea4d;" d="M160 96v384h-64v-384h-80l112-112 112 112h-80zM224 480h288v-64h-288v64zM224 384h224v-64h-224v64zM224 288h160v-64h-160v64zM224 192h96v-64h-96v64z" />
<glyph unicode="&#xea5b;" d="M256 480c-141.385 0-256-35.817-256-80v-48l192-192v-160c0-17.673 28.653-32 64-32s64 14.327 64 32v160l192 192v48c0 44.183-114.615 80-256 80zM47.192 410.588c11.972 6.829 28.791 13.31 48.639 18.744 43.972 12.038 100.854 18.668 160.169 18.668s116.197-6.63 160.169-18.668c19.848-5.434 36.667-11.915 48.64-18.744 7.896-4.503 12.162-8.312 14.148-10.588-1.986-2.276-6.253-6.084-14.148-10.588-11.973-6.829-28.792-13.31-48.64-18.744-43.971-12.038-100.854-18.668-160.169-18.668s-116.197 6.63-160.169 18.668c-19.848 5.434-36.667 11.915-48.639 18.744-7.896 4.504-12.162 8.312-14.149 10.588 1.987 2.276 6.253 6.084 14.149 10.588z" />
<glyph unicode="&#xea68;" d="M0 224h64v-32h-64zM96 224h96v-32h-96zM224 224h64v-32h-64zM320 224h96v-32h-96zM448 224h64v-32h-64zM440 480l8-224h-384l8 224h16l8-192h320l8 192zM72-32l-8 192h384l-8-192h-16l-8 160h-320l-8-160z" />
<glyph unicode="&#xea6e;" d="M128 288v192h384v-192h-32v160h-320v-160zM512 192v-224h-384v224h32v-192h320v192zM256 256h64v-32h-64zM160 256h64v-32h-64zM352 256h64v-32h-64zM448 256h64v-32h-64zM0 336l96-96-96-96z" />
<glyph unicode="&#xea70;" d="M0 384v-352h512v352h-512zM192 160v64h128v-64h-128zM320 128v-64h-128v64h128zM320 320v-64h-128v64h128zM160 320v-64h-128v64h128zM32 224h128v-64h-128v64zM352 224h128v-64h-128v64zM352 256v64h128v-64h-128zM32 128h128v-64h-128v64zM352 64v64h128v-64h-128z" />
<glyph unicode="&#xea71;" d="M0 448v-448h512v448h-512zM192 160v96h128v-96h-128zM320 128v-96h-128v96h128zM320 384v-96h-128v96h128zM160 384v-96h-128v96h128zM32 256h128v-96h-128v96zM352 256h128v-96h-128v96zM352 288v96h128v-96h-128zM32 128h128v-96h-128v96zM352 32v96h128v-96h-128z" />
<glyph unicode="&#xea72;" d="M192 384h64v-32h-64zM288 384h64v-32h-64zM448 384v-128h-96v32h64v64h-32v32zM160 288h64v-32h-64zM256 288h64v-32h-64zM96 352v-64h32v-32h-64v128h96v-32zM192 192h64v-32h-64zM288 192h64v-32h-64zM448 192v-128h-96v32h64v64h-32v32zM160 96h64v-32h-64zM256 96h64v-32h-64zM96 160v-64h32v-32h-64v128h96v-32zM480 448h-448v-448h448v448zM512 480v0-512h-512v512h512z" />
<glyph unicode="&#xea7d;" d="M128 160c0 0 29.412 96 192 96v-96l192 128-192 128v-96c-128 0-192-79.836-192-160zM352 96h-288v192h62.938c5.047 5.959 10.456 11.667 16.244 17.090 21.982 20.595 48.281 36.326 78.057 46.91h-221.239v-320h416v134.312l-64-42.667v-27.645z" />
<glyph unicode="&#xea81;" d="M0 448v-448h512v448h-512zM480 32h-448v384h448v-384zM448 384h-384v-320h384v320zM224 224h-32v-32h-32v-32h-32v32h32v32h32v32h-32v32h-32v32h32v-32h32v-32h32v-32zM352 160h-96v32h96v-32z" />
<glyph unicode="&#xea86;" d="M256 480c-141.385 0-256-114.615-256-256s114.615-256 256-256 256 114.615 256 256-114.615 256-256 256zM128 352h256c4.569 0 9.002-0.981 13.072-2.831l-141.072-164.584-141.072 164.585c4.070 1.848 8.503 2.83 13.072 2.83zM96 128v192c0 0.67 0.028 1.336 0.070 2l93.832-109.471-92.799-92.799c-0.722 2.668-1.103 5.443-1.103 8.27zM384 96h-256c-2.827 0-5.601 0.381-8.27 1.104l91.059 91.059 45.211-52.749 45.212 52.747 91.058-91.060c-2.67-0.72-5.443-1.101-8.27-1.101zM416 128c0-2.827-0.381-5.6-1.103-8.27l-92.8 92.799 93.833 109.471c0.042-0.664 0.070-1.33 0.070-2v-192z" />
<glyph unicode="&#xea87;" d="M394.767 448c0 0-100.478 0-133.97 0-60.061 0-116.585-45.503-116.585-98.211 0-53.863 40.941-97.333 102.044-97.333 4.249 0 8.378 0.085 12.42 0.376-3.964-7.593-6.8-16.144-6.8-25.021 0-14.969 8.052-27.105 18.234-37.012-7.693 0-15.121-0.224-23.226-0.224-74.391 0.001-131.65-47.38-131.65-96.511 0-48.389 62.771-78.656 137.167-78.656 84.812 0 131.653 48.122 131.653 96.514 0 38.801-11.448 62.036-46.843 87.067-12.108 8.571-35.266 29.418-35.266 41.672 0 14.36 4.098 21.434 25.714 38.323 22.156 17.312 37.837 41.651 37.837 69.958 0 33.703-15.011 66.549-43.187 77.386h42.478l29.98 21.672zM347.974 120.271c1.063-4.486 1.642-9.104 1.642-13.814 0-39.1-25.195-69.655-97.487-69.655-51.421 0-88.558 32.552-88.558 71.65 0 38.321 46.063 70.222 97.482 69.666 12-0.127 23.184-2.058 33.334-5.345 27.914-19.414 47.938-30.38 53.587-52.502zM265.643 266.112c-34.519 1.032-67.318 38.613-73.276 83.93-5.958 45.333 17.185 80.021 51.694 78.995 34.504-1.037 67.318-37.407 73.279-82.729 5.953-45.33-17.195-81.229-51.697-80.196z" />
<glyph unicode="&#xea88;" d="M279.533 448c0 0-100.478 0-133.97 0-60.060 0-116.585-45.503-116.585-98.211 0-53.863 40.941-97.333 102.044-97.333 4.249 0 8.378 0.085 12.421 0.376-3.965-7.593-6.801-16.144-6.801-25.021 0-14.969 8.052-27.105 18.234-37.012-7.693 0-15.121-0.224-23.226-0.224-74.391 0.001-131.65-47.379-131.65-96.51 0-48.389 62.771-78.657 137.167-78.657 84.812 0 131.653 48.122 131.653 96.514 0 38.8-11.448 62.036-46.843 87.067-12.108 8.572-35.265 29.418-35.265 41.672 0 14.36 4.098 21.434 25.714 38.323 22.156 17.312 37.836 41.651 37.836 69.958 0 33.703-15.010 66.549-43.186 77.386h42.477l29.98 21.672zM232.74 120.271c1.063-4.486 1.642-9.103 1.642-13.814 0-39.1-25.196-69.655-97.487-69.655-51.421 0-88.558 32.552-88.558 71.65 0 38.321 46.063 70.222 97.482 69.666 12-0.127 23.184-2.058 33.335-5.345 27.913-19.413 47.938-30.381 53.586-52.502zM150.409 266.112c-34.519 1.032-67.318 38.613-73.276 83.93-5.958 45.333 17.185 80.021 51.694 78.995 34.505-1.037 67.319-37.407 73.279-82.729 5.953-45.33-17.195-81.229-51.697-80.196zM416 352v96h-32v-96h-96v-32h96v-96h32v96h96v32z" />
<glyph unicode="&#xea8d;" d="M426.675 480h-341.351c-47.125 0-85.324-38.21-85.324-85.343v-341.315c0-47.133 38.199-85.342 85.324-85.342h170.676v224h-64v64h64v48c0 44.183 35.817 80 80 80h80v-64h-80c-8.837 0-16-7.164-16-16v-48h88l-16-64h-72v-224h106.675c47.125 0 85.325 38.209 85.325 85.342v341.315c0 47.133-38.2 85.343-85.325 85.343z" />
<glyph unicode="&#xea91;" d="M512 382.791c-18.838-8.354-39.082-14.001-60.33-16.54 21.686 13 38.343 33.585 46.186 58.115-20.298-12.039-42.778-20.78-66.705-25.49-19.16 20.415-46.461 33.17-76.673 33.17-58.011 0-105.044-47.029-105.044-105.039 0-8.233 0.929-16.25 2.72-23.939-87.3 4.382-164.701 46.2-216.509 109.753-9.042-15.514-14.223-33.558-14.223-52.809 0-36.444 18.544-68.596 46.73-87.433-17.219 0.546-33.416 5.271-47.577 13.139-0.010-0.438-0.010-0.878-0.010-1.321 0-50.894 36.209-93.348 84.261-103-8.813-2.4-18.094-3.686-27.674-3.686-6.769 0-13.349 0.66-19.764 1.886 13.368-41.73 52.16-72.103 98.126-72.948-35.95-28.175-81.243-44.967-130.458-44.967-8.479 0-16.84 0.497-25.058 1.47 46.486-29.805 101.701-47.197 161.021-47.197 193.211 0 298.868 160.062 298.868 298.872 0 4.554-0.103 9.084-0.305 13.59 20.528 14.81 38.336 33.31 52.418 54.374z" />
<glyph unicode="&#xea99;" d="M146.594 480l-34.594-68.617-34.594 68.617h-44.124l62.355-108.657 0.363 0.215v-83.558h32v83.558l0.363-0.215 62.355 108.657zM240 416c8.673 0 16-7.327 16-16v-64c0-8.673-7.327-16-16-16s-16 7.327-16 16v64c0 8.673 7.327 16 16 16zM240 448c-26.4 0-48-21.6-48-48v-64c0-26.4 21.6-48 48-48s48 21.6 48 48v64c0 26.4-21.6 48-48 48v0zM384 448v-125.984c-13.961-11.644-32-18.666-32 22.817v103.167h-32v-109.662h0.048c0.493-26.455 6.071-74.084 63.952-35.356v-14.982h32v160h-32zM432 128c-8.822 0-16-7.178-16-16v-16h32v16c0 8.822-7.178 16-16 16zM288 112v-84c10.833-10.833 32-12 32 4s0 59 0 75-16 21-32 5zM509.383 189.23c-1.396 18.431-8.023 33.471-19.889 45.122-11.863 11.649-27.040 17.997-45.534 19.040-34.892 1.739-114.726 2.608-184.858 2.608s-155.647-0.869-190.539-2.608c-18.493-1.043-33.671-7.391-45.534-19.040-11.864-11.651-18.494-26.691-19.889-45.122-2.094-37.558-3.14-51.176-3.14-69.955 0-18.78 1.046-46.947 3.14-84.506 1.396-18.431 8.025-33.472 19.889-45.122 11.863-11.649 27.041-17.996 45.534-19.040 34.891-1.738 120.405-2.607 190.539-2.607 70.133 0 149.967 0.869 184.858 2.607 18.494 1.044 33.671 7.391 45.534 19.040 11.865 11.65 18.493 26.691 19.889 45.122 1.745 31.299 2.617 59.467 2.617 84.506 0 25.038-0.872 38.657-2.617 69.955zM96 0h-32v160h-32v32h96v-32h-32v-160zM224 0h-32v14.981c-60.833-34.147-63.459-1.099-63.952 25.356h-0.048v87.663h32v-88.167c0-19.333 18.039-17.462 32-5.817v93.984h32v-128zM352 32.457c0-33.446-34.252-43.201-64-17.195v-15.262h-32v192h32v-52c32 32 64 20 64-12s0-60.586 0-95.543zM480 96v-16h-64v-32c0-8.822 7.178-16 16-16s16 7.178 16 16v16h32v-16c0-26.467-21.533-48-48-48s-48 21.533-48 48v64c0 26.467 21.533 48 48 48s48-21.533 48-48v-16z" />
<glyph unicode="&#xea9c;" d="M0 325.815l20.797-27.272c0 0 42.885 33.804 57.18 16.901 14.294-16.901 68.868-220.978 87.085-258.623 15.9-33.015 59.759-76.66 107.857-45.491 48.068 31.17 207.92 167.643 236.533 328.808 28.59 161.113-192.36 127.363-215.765-13.005 58.495 35.118 89.718-14.269 59.785-70.186-29.879-55.862-57.18-92.296-71.476-92.296-14.269 0-25.245 37.384-41.594 102.723-16.899 67.551-16.796 189.23-87.058 175.435-66.259-13.006-153.344-116.994-153.344-116.994z" />
<glyph unicode="&#xeaa1;" d="M400 272c-35.29 0-64-28.71-64-64s28.71-64 64-64c35.29 0 64 28.71 64 64s-28.71 64-64 64zM400 320v0c61.855 0 112-50.144 112-112s-50.145-112-112-112-112 50.145-112 112c0 61.856 50.145 112 112 112zM0 208c0 61.856 50.144 112 112 112s112-50.144 112-112c0-61.856-50.144-112-112-112s-112 50.144-112 112z" />
<glyph unicode="&#xeaaf;" d="M368 464l-112-96 144-96 112 96zM256 368l-112 96-144-96 112-96zM400 272l112-96-144-80-112 96zM256 192l-144 80-112-96 144-80zM364.078 57.215l-108.078 92.639-108.079-92.639-67.921 37.734v-46.949l176-80 176 80v46.949z" />
<glyph unicode="&#xeab0;" d="M175.434 65.806c-30.137 7.53-46.928 31.485-46.981 67.032-0.016 11.363 0.806 16.81 3.643 24.118 6.954 17.917 25.364 31.436 49.588 36.411 12.055 2.475 15.768 5.133 15.768 11.286 0 1.931 1.436 7.68 3.189 12.776 7.966 23.153 22.715 42.455 38.474 50.351 16.495 8.263 24.821 10.127 44.774 10.020 28.337-0.152 42.476-6.299 62.248-27.064l10.875-11.421 9.742 3.371c47.15 16.318 94.153-11.458 97.944-57.878l1.036-12.699 9.285-3.325c26.516-9.502 38.98-29.452 36.721-58.778-1.479-19.179-10.445-34.49-24.65-42.092l-6.678-3.573-148.411-0.285c-114.047-0.22-150.3 0.184-156.567 1.75v0zM51.609 87.017c-18.088 4.543-37.253 21.427-46.24 40.735-5.098 10.953-5.369 12.564-5.369 31.94 0 18.432 0.435 21.389 4.494 30.54 8.555 19.291 24.947 33.23 45.515 38.704 4.342 1.156 8.421 3 9.064 4.098 0.645 1.099 1.361 7.082 1.591 13.296 1.433 38.598 25.395 72.607 58.854 83.528 18.077 5.9 41.786 6.449 61.448-1.863 6.235-2.637 5.534-3.202 18.719 15.070 7.797 10.806 22.554 22.245 35.45 29.090 13.919 7.388 28.396 10.792 45.706 10.747 48.384-0.126 90.083-32.11 105.502-80.924 4.927-15.596 4.681-19.963-1.13-20.092-2.536-0.056-9.802-1.532-16.146-3.279l-11.536-3.179-10.526 11.125c-29.681 31.367-78.119 38.147-119.296 16.698-16.45-8.569-29.67-20.873-39.655-36.905-7.118-11.429-16.195-32.752-16.195-38.047 0-3.755-2.877-5.632-15.166-9.891-38.047-13.188-60.254-43.641-60.238-82.609 0.005-14.184 3.461-31.537 8.26-41.478 1.809-3.747 2.817-7.311 2.242-7.918-1.473-1.553-48.804-1.030-55.348 0.614v0z" />
</font>
</defs>
</svg>
